<?xml version="1.0" encoding="utf-8"?>
<!-- Generator: Adobe Illustrator 24.0.1, SVG Export Plug-In . SVG Version: 6.00 Build 0)  -->
<svg version="1.1" xmlns="http://www.w3.org/2000/svg" xmlns:xlink="http://www.w3.org/1999/xlink" x="0px" y="0px"
	 viewBox="0 0 256 512" style="enable-background:new 0 0 256 512;" xml:space="preserve">
<style type="text/css">
	.st0{display:none;}
	.st1{display:inline;fill:#2B2200;}
	.st2{fill:#FFFFFF;}
	.st3{fill:#965550;}
	.st4{opacity:0.2;fill:url(#SVGID_1_);}
	.st5{opacity:0.5;fill:#B58E77;}
	.st6{opacity:0.5;fill:#AA7E67;}
	.st7{fill:#AA7E67;}
	.st8{fill:#633914;}
</style>
<g id="Calque_3" class="st0">
	<image style="display:inline;overflow:visible;" width="256" height="512" xlink:href="../corps_f.png" >
	</image>
</g>
<g id="Calque_1" class="st0">
	<path id="cheveux" class="st1" d="M116.6,110.4l2.2-3.3c0.5-0.8,0.8-1.8,0.8-2.7l0,0c0-1,1.3-0.7,1.4-0.6l0,0
		c1,0.4-0.1,1.1,0.4,2.1l0.2,0.5v-1.2c0-1.1,1.5-2.2,0.7-3l-0.3-0.3l3.6,5.6c-0.5-0.5-0.2-1.5,0.2-2.4c0.5-1.2,0.6-2.5,0.4-3.8l0,0
		c-0.3-0.7-0.8-1.2-1.4-1.6c-0.9-0.5-1.7-1.3-2.2-2.3l0,0c0,0,0,0,0-0.1c0.6-1.2,0.6-2.6,0-3.7l-0.2-0.3c-0.4-0.8-0.7-1.6-1-2.4
		c0-0.1-0.1-0.2-0.1-0.3c-0.6-1.5-1.1-3-1.4-4.6l-0.1-0.5c-0.1-0.8-0.2-1.6-0.2-2.3l-0.3-8.1l0.5-1.3c0.5-1.3,2-1.8,3.1-1l0.1,0
		c0.5,0.3,1,0.3,1.5,0l0.2-0.3c0.7-0.8,1.2-1.8,1.6-2.8l0.3-1c0.5-1.6,2.5-2.1,3.7-0.9l1.4,1.4c0.7,0.7,1.4,1.3,2.2,1.7l3.8,2.3
		l-1.9-2.5c-0.7-1-1.1-2.2-1.1-3.4v-1.2c0-0.3,0.4-0.5,0.7-0.3l3.3,2.6c0.6,0.5,0.8,1.3,0.6,2l-0.6,1.8l1.2-1.2
		c0.5-0.5,1.2-0.7,1.8-0.5l1.7,0.4c0.8,0.2,1.3,0.9,1.3,1.6v1.4c0,1.5,0.3,2.9,1,4.2l0,0l1-4l0.6-1.9c0.2-0.5,0.8-0.7,1.2-0.3v0
		c0.7,0.7,1.1,1.8,0.9,2.8l-0.5,3.2c-0.1,0.8-0.2,1.6-0.2,2.3v1.7c0,0.6,0.5,1.2,1.2,1.2l0,0c0.4,0,0.7,0.4,0.6,0.8l0.1,2.3
		c0,0.5-0.2,1-0.7,1.2l-0.4,0.2c-1,0.5-0.9,2,0.2,2.4l0,0l-1.4,1.8c-1.3,1.6-1.6,3.8-0.7,5.6l0,0.1c0.7,1.6,0.8,3.5,0.2,5.2
		c-0.1,0.2-0.1,0.3-0.1,0.3l0.3,0.3c1.1,1.1,1.6,2.7,1.2,4.2v0c-0.2,0.9-0.7,1.8-1.3,2.4l-1.1,1.1l0.6-0.2c1.5-0.5,2.7-1.7,3.2-3.2
		l0.2-0.6l0.2-0.1c1-0.5,2.1,0,2.5,1l0.4,1.1l0.7-1.4c0.2-0.4,0.5-0.7,0.9-0.8l2.4-0.8l-2,0c-1.5,0-2.8-1.2-2.9-2.7l0-0.1
		c0-1.5,0.3-2.9,0.9-4.2l0,0l0.5-0.3c0.7-0.4,1.6,0,1.8,0.8l0,0c0.4,1.5,1.5,2.7,2.9,3.2c0.4,0.1,0.7,0.2,0.7,0.2l-1.1-1.1
		c-0.6-0.6-0.9-1.3-0.9-2.2V100c0-0.4,0.1-0.8,0.3-1.1l0.2-0.8c0.3-1.1,1-2.1,1.9-2.7l0,0c0.8-0.6,1.1-1.7,0.7-2.6l-0.2-0.4
		l-0.8-0.8c-0.5-0.5-0.3-1.4,0.4-1.6l1.2-0.3c0.4-0.1,0.4-0.8,0.4-1.4c0-0.6,0.6-1,1.1-0.7l1,0.5c0.1-0.7-1.8-1.2-0.9-1.7
		c0.7-0.4,1.2-1.1,1.5-1.9l0,0l-1.2,0.4c-1.2,0.4-1.5,0.3-2.6-0.3l-0.3-0.1l0,0c1-1,0.7-2.6-0.5-3.3l0,0c-0.6-0.3-0.5-1.1,0.1-1.3
		l2-0.8c1-0.4,1.9-1,2.7-1.7l0,0c1.2-1.2-2.1-2.7-1.8-4.4c0.1-0.8,0.2-1.7,0.4-2.5c0.2-1.3-1.9-2.7-2.3-3.9l1-1
		c1.5-1.5,1.6-4,0.1-5.5l0,0l-0.7-1.8c-0.3-0.8-0.9-1.4-1.6-1.7c-0.3-0.1-0.6-0.3-0.7-0.4l-3.7-3.1c-1.2-1-2.5-1.8-3.8-2.4l-1.5-0.7
		c-2.2-1-4.6-1.4-7-1.4h-6.4c-0.6,0-1.2,0-1.8,0.1h0c-4.4,0.5-8.6,2.4-11.9,5.4l-2.3,3.4c-0.9,1.4-2.1,2.5-3.5,3.4
		c-1.2,0.8-2.4,1.6-3,2.8l-0.4,0.7c-1.7,3.1-2.4,6.7-1.8,10.2l0.2,1.1c0.3,1.6-0.1,3.3-1,4.6l0,0c-1.4,2.2-0.2,5.4,1.8,7.4l0.3,0.3
		c1.6,1.6,2.3,4.1,1.6,6.3l-0.3,0.9c-0.2,0.6-0.5,0.2-0.9,0.7c-0.4,0.5-0.5,2.1-0.3,2.5l0.6-1.2c0.2-0.4,0.6-0.6,1-0.9
		c1.4-0.9,2.1-0.7,2.1-0.7c0.6-0.1,1.1,0.5,0.8,1.1l-0.2,0.6c-0.5,1.1-0.6,2.4-0.4,3.6l0,0.1l0.6,4.2c0.2,1.1,0.1,2.3-0.2,3.4
		L116.6,110.4z"/>
</g>
<g id="Calque_2">
	<path class="st2" d="M132.5,97.2l-1.3,0.4c-0.8,0.3-1.6,0.3-2.3,0l-1.3-0.4v-0.8h4.9V97.2z"/>
	<path class="st3" d="M133.8,95.8c-1.3-0.7-3.3,0.1-3.3,0.1c-0.3-0.1-0.8-0.1-1.3-0.2c-1.4-0.2-2,0.1-3.3,0.7
		c-0.2,0.1,0.2,1.1,2,1.6c1.3,0.3,1.7,0.2,3.1,0.1c1.5-0.1,2.3-0.9,3.9-1.7L133.8,95.8z M128,96.8L128,96.8c1.1,0.1,3.2,0,4.4-0.1
		C131.3,97.4,129.1,97.5,128,96.8z"/>
	<linearGradient id="SVGID_1_" gradientUnits="userSpaceOnUse" x1="130.953" y1="78.5496" x2="129.8046" y2="91.6759">
		<stop  offset="0" style="stop-color:#B58E77;stop-opacity:0"/>
		<stop  offset="0.9986" style="stop-color:#B58E77"/>
	</linearGradient>
	<path class="st4" d="M128.5,80.5l0.2,1c0.2,1.6,0.1,3.3-0.5,4.8l0,0c-0.1,1.1-0.5,2.1-1.3,2.8l0,0c-0.4,0.4-0.3,1.1,0.2,1.3
		l1.8,0.9c0.8,0.4,1.6,0.4,2.4,0l1.7-0.8c0.6-0.3,0.7-1,0.2-1.5L133,89c-0.6-0.6-0.9-1.5-0.8-2.4l0,0c-0.1-1.7,0-3.4,0.5-5.1L133,80
		l-0.3-0.5c-0.8-1.3-2.6-1.3-3.6-0.1l-0.4,0.5L128.5,80.5z"/>
	<path class="st5" d="M128.5,91.4c1,0.4,2.1,0.4,3.1,0.1l1.1-0.6c0.9-0.5,1.2-0.7,0.6-1.5c0-0.1-0.1-0.1-0.2-0.2
		c0.4,0.4,0.3,1.1-0.3,1.4l-1.7,0.8c-0.8,0.4-1.6,0.4-2.4,0l-1.8-0.9c-0.5-0.2-0.6-0.9-0.2-1.3c0,0-0.1,0.1-0.1,0.2
		c-0.6,0.9-0.1,1.2,0.9,1.6L128.5,91.4z"/>
	<path class="st6" d="M134.9,80.5L134.9,80.5c0.8,0.7,1.8,1.1,2.8,1.2l1.7,0.2c1.2,0.2,2.5-0.1,3.5-0.8l0.3-0.2
		c1.4-0.9,1.8-2.8,0.8-4.2l-0.2-0.3c-0.7-1-1.8-1.8-3-2h0c-1.2-0.2-2.4-0.2-3.5,0.2l-0.7,0.2c-1.3,0.7-1.3,0.7-2,1.4l0,0
		C133.5,77.5,133.6,79.4,134.9,80.5z"/>
	<path class="st6" d="M124.4,73.6l-1.2-0.2c-1.1-0.2-2.2,0.7-2.9,1.2l-0.1,0.1c-0.2,1.6-0.2,3.3-0.2,4.9c0.8,1.2,2.2,2,3.7,2h1.3
		c1,0,1.9-0.3,2.7-0.9c1.6-1.3,1.8-3.7,0.3-5.2C127,74.4,125.7,73.8,124.4,73.6z"/>
	<path class="st7" d="M128.9,78.2c-0.4-2-2.5-3.5-5-3.5c-1.5,0-2.9,0.6-3.8,1.4c-0.1,1.1-0.1,2.2-0.1,3.3c0.8,1.2,2.2,2,3.7,2h1.3
		c1,0,1.9-0.3,2.7-0.9C128.4,80,128.8,79.1,128.9,78.2z"/>
	<path class="st7" d="M134.1,79.4c0.2,0.4,0.4,0.8,0.8,1.1c0.8,0.7,1.8,1.1,2.8,1.2l1.7,0.2c1.2,0.2,2.5-0.1,3.5-0.8l0.3-0.2
		c1.4-0.9,1.8-2.8,0.8-4.2l-0.2-0.3c-0.1-0.2-0.3-0.4-0.5-0.6c-0.8-0.2-1.6-0.3-2.5-0.3C137.6,75.6,134.8,77.2,134.1,79.4z"/>
	<path class="st2" d="M124.3,76.2c-1.9,0-3.6,0.7-4.3,1.8c0,0.5,0,1,0,1.5c0.8,1.2,2.2,2,3.7,2h1.3c1,0,1.9-0.3,2.7-0.9
		c0.7-0.6,1.1-1.3,1.2-2.1C128.4,77.2,126.5,76.2,124.3,76.2z"/>
	<path class="st2" d="M139.1,76.3c-1.1,0-2,0.2-2.8,0.5c-1.1,0.7-1.8,1.5-2.1,2.5c0.2,0.4,0.4,0.8,0.8,1.1c0.8,0.7,1.8,1.1,2.8,1.2
		l1.7,0.2c1.2,0.2,2.5-0.1,3.5-0.8l0.3-0.2c0.3-0.2,0.6-0.5,0.8-0.8c0.1-0.2,0.1-0.4,0.1-0.7C144.2,77.7,141.9,76.3,139.1,76.3z"/>
	<ellipse class="st8" cx="125.2" cy="79.8" rx="2.1" ry="1.7"/>
	<path class="st8" d="M140.6,78.5c-1.2,0-2.2,0.8-2.2,1.8c0,0.7,0.5,1.3,1.2,1.6c0.9,0.1,1.8,0,2.6-0.3c0.4-0.3,0.7-0.8,0.7-1.3
		C142.9,79.3,141.9,78.5,140.6,78.5z"/>
	<ellipse cx="125.2" cy="79.8" rx="1.3" ry="1"/>
	<ellipse cx="140.6" cy="80.4" rx="1.5" ry="1.2"/>
	<path class="st7" d="M120.1,75.9c-0.1,0.8-0.1,1.6-0.1,2.4l1.8-0.2c1.4-0.1,2.9-0.1,4.3,0.2l2.6,0.5c0.2-0.5,0.2-1,0.1-1.6
		l-0.3-0.4c-0.8-1.2-1.9-2.1-3.3-2.5c-0.7-0.2-1.4-0.2-2.1-0.1c-0.5,0.1-1,0.3-1.5,0.6L120.1,75.9z"/>
	<path class="st7" d="M144.4,79.1c0.1-0.1,0.1-0.1,0.1-0.2l-0.9-2.9c-0.7-0.8-1.6-1.4-2.7-1.6c-1.2-0.2-2.4-0.2-3.5,0.2l-0.7,0.2
		c-1.3,0.7-1.3,0.7-2,1.4c-0.7,0.7-0.9,1.7-0.8,2.6l0,0c3.3-0.6,6.7-0.5,10,0.2L144.4,79.1z"/>
	<path d="M120,76L120,76c0.9-1.1,2.2-1.8,3.6-1.9c1,0,2,0.2,2.9,0.8l1.8,1.1l-0.7-0.7c-2.1-2.1-5.4-2.3-7.6-0.1V76z"/>
	<path d="M134,77l1.3-1.1c0.8-0.7,1.7-1.1,2.6-1.3c1.5-0.3,4.1-0.5,5.5,1.6L144,76l-0.1-0.2c-1.9-2.8-4.6-2.7-6.9-1.7
		C135.7,74.7,134.6,75.7,134,77L134,77z"/>
</g>
</svg>
