<?xml version="1.0" encoding="utf-8"?>
<!-- Generator: Adobe Illustrator 24.0.1, SVG Export Plug-In . SVG Version: 6.00 Build 0)  -->
<svg version="1.1" xmlns="http://www.w3.org/2000/svg" xmlns:xlink="http://www.w3.org/1999/xlink" x="0px" y="0px"
	 viewBox="0 0 1920 90" style="enable-background:new 0 0 1920 90;" xml:space="preserve">
<style type="text/css">
	.st0{display:none;fill:#FFEFBC;}
	.st1{fill:url(#SVGID_1_);}
	.st2{display:none;}
	.st3{display:inline;fill:url(#SVGID_2_);}
	.st4{display:inline;fill:url(#SVGID_3_);}
	.st5{display:inline;fill:url(#SVGID_4_);}
	.st6{display:inline;fill:url(#SVGID_5_);}
	.st7{display:inline;fill:url(#SVGID_6_);}
	.st8{display:inline;fill:url(#SVGID_7_);}
	.st9{display:inline;fill:url(#SVGID_8_);}
	.st10{display:inline;fill:url(#SVGID_9_);}
	.st11{display:inline;fill:url(#SVGID_10_);}
	.st12{display:inline;fill:url(#SVGID_11_);}
	.st13{display:inline;fill:url(#SVGID_12_);}
	.st14{display:inline;fill:url(#SVGID_13_);}
	.st15{display:inline;fill:url(#SVGID_14_);}
	.st16{display:inline;fill:url(#SVGID_15_);}
	.st17{display:inline;fill:url(#SVGID_16_);}
	.st18{display:inline;fill:url(#SVGID_17_);}
	.st19{display:inline;fill:url(#SVGID_18_);}
	.st20{display:inline;fill:url(#SVGID_19_);}
	.st21{display:inline;fill:url(#SVGID_20_);}
	.st22{display:inline;fill:#202020;}
	.st23{fill:#202020;}
</style>
<g id="Calque_1">
	<rect y="-105" class="st0" width="1920" height="300"/>
	<linearGradient id="SVGID_1_" gradientUnits="userSpaceOnUse" x1="960.0025" y1="-9.094947e-13" x2="960.0025" y2="89.4413">
		<stop  offset="0" style="stop-color:#FFEFBC"/>
		<stop  offset="0.1884" style="stop-color:#FAEAB8"/>
		<stop  offset="0.3544" style="stop-color:#EADAAC"/>
		<stop  offset="0.512" style="stop-color:#D0C299"/>
		<stop  offset="0.6644" style="stop-color:#AFA281"/>
		<stop  offset="0.813" style="stop-color:#887D64"/>
		<stop  offset="0.9569" style="stop-color:#5E5746"/>
		<stop  offset="1" style="stop-color:#514C3D"/>
	</linearGradient>
	<rect x="0" class="st1" width="1920" height="89.44"/>
</g>
<g id="Calque_3" class="st2">
	<linearGradient id="SVGID_2_" gradientUnits="userSpaceOnUse" x1="57.6939" y1="195" x2="57.6939" y2="45">
		<stop  offset="0" style="stop-color:#212121"/>
		<stop  offset="1" style="stop-color:#000000"/>
	</linearGradient>
	<rect y="45" class="st3" width="115.39" height="150"/>
	<linearGradient id="SVGID_3_" gradientUnits="userSpaceOnUse" x1="88.7259" y1="148.8201" x2="156.0856" y2="109.9299">
		<stop  offset="0" style="stop-color:#212121"/>
		<stop  offset="1" style="stop-color:#000000"/>
	</linearGradient>
	<polygon class="st4" points="161.9,120 115.39,45 115.39,195 161.9,195 	"/>
	<linearGradient id="SVGID_4_" gradientUnits="userSpaceOnUse" x1="290.813" y1="195" x2="290.813" y2="120">
		<stop  offset="0" style="stop-color:#212121"/>
		<stop  offset="1" style="stop-color:#000000"/>
	</linearGradient>
	<rect x="161.9" y="120" class="st5" width="257.83" height="75"/>
	<linearGradient id="SVGID_5_" gradientUnits="userSpaceOnUse" x1="406.6183" y1="181.8919" x2="465.3261" y2="123.184">
		<stop  offset="0" style="stop-color:#212121"/>
		<stop  offset="1" style="stop-color:#000000"/>
	</linearGradient>
	<polygon class="st6" points="419.73,120 442.29,100.15 442.29,195 419.73,195 	"/>
	<linearGradient id="SVGID_6_" gradientUnits="userSpaceOnUse" x1="475.3745" y1="195" x2="475.3745" y2="100.1519">
		<stop  offset="0" style="stop-color:#212121"/>
		<stop  offset="1" style="stop-color:#000000"/>
	</linearGradient>
	<rect x="442.29" y="100.15" class="st7" width="66.16" height="94.85"/>
	<linearGradient id="SVGID_7_" gradientUnits="userSpaceOnUse" x1="489.533" y1="162.226" x2="530.6034" y2="138.514">
		<stop  offset="0" style="stop-color:#212121"/>
		<stop  offset="1" style="stop-color:#000000"/>
	</linearGradient>
	<polygon class="st8" points="521.36,140.83 508.46,100.15 508.46,195 521.36,195 	"/>
	<linearGradient id="SVGID_8_" gradientUnits="userSpaceOnUse" x1="587.7305" y1="195" x2="587.7305" y2="140.3683">
		<stop  offset="0" style="stop-color:#212121"/>
		<stop  offset="1" style="stop-color:#000000"/>
	</linearGradient>
	<polygon class="st9" points="654.1,195 654.1,140.37 521.36,140.83 521.36,195 	"/>
	<linearGradient id="SVGID_9_" gradientUnits="userSpaceOnUse" x1="635.5792" y1="176.4786" x2="712.9474" y2="99.1104">
		<stop  offset="0" style="stop-color:#212121"/>
		<stop  offset="1" style="stop-color:#000000"/>
	</linearGradient>
	<polygon class="st10" points="654.1,140.37 680.98,67.15 680.98,195 654.1,195 	"/>
	<linearGradient id="SVGID_10_" gradientUnits="userSpaceOnUse" x1="739.4904" y1="195" x2="739.4904" y2="67.1472">
		<stop  offset="0" style="stop-color:#212121"/>
		<stop  offset="1" style="stop-color:#000000"/>
	</linearGradient>
	<rect x="680.98" y="67.15" class="st11" width="117.01" height="127.85"/>
	<linearGradient id="SVGID_11_" gradientUnits="userSpaceOnUse" x1="508.455" y1="167.6841" x2="508.455" y2="167.6841">
		<stop  offset="0" style="stop-color:#212121"/>
		<stop  offset="1" style="stop-color:#000000"/>
	</linearGradient>
	<path class="st12" d="M508.46,167.68"/>
	<linearGradient id="SVGID_12_" gradientUnits="userSpaceOnUse" x1="878.9983" y1="195" x2="878.9983" y2="110.7776">
		<stop  offset="0" style="stop-color:#212121"/>
		<stop  offset="1" style="stop-color:#000000"/>
	</linearGradient>
	<rect x="798" y="110.78" class="st13" width="162" height="84.22"/>
	<linearGradient id="SVGID_13_" gradientUnits="userSpaceOnUse" x1="945.3292" y1="169.5895" x2="994.3937" y2="141.2621">
		<stop  offset="0" style="stop-color:#212121"/>
		<stop  offset="1" style="stop-color:#000000"/>
	</linearGradient>
	<polygon class="st14" points="960,110.78 988.51,131.07 988.51,195 960,195 	"/>
	<linearGradient id="SVGID_14_" gradientUnits="userSpaceOnUse" x1="1041.0435" y1="195" x2="1041.0435" y2="131.0736">
		<stop  offset="0" style="stop-color:#212121"/>
		<stop  offset="1" style="stop-color:#000000"/>
	</linearGradient>
	<rect x="988.51" y="131.07" class="st15" width="105.06" height="63.93"/>
	<linearGradient id="SVGID_15_" gradientUnits="userSpaceOnUse" x1="1083.5996" y1="185.024" x2="1141.5747" y2="127.0488">
		<stop  offset="0" style="stop-color:#212121"/>
		<stop  offset="1" style="stop-color:#000000"/>
	</linearGradient>
	<polygon class="st16" points="1118.18,197.23 1118.18,103.65 1093.58,131.07 1093.58,195 	"/>
	<linearGradient id="SVGID_16_" gradientUnits="userSpaceOnUse" x1="1201.7305" y1="197.234" x2="1201.7305" y2="103.6538">
		<stop  offset="0" style="stop-color:#212121"/>
		<stop  offset="1" style="stop-color:#000000"/>
	</linearGradient>
	<polygon class="st17" points="1118.18,103.65 1285.28,103.65 1285.28,195 1118.18,197.23 	"/>
	<linearGradient id="SVGID_17_" gradientUnits="userSpaceOnUse" x1="1274.0664" y1="183.7852" x2="1355.5228" y2="102.3288">
		<stop  offset="0" style="stop-color:#212121"/>
		<stop  offset="1" style="stop-color:#000000"/>
	</linearGradient>
	<polygon class="st18" points="1285.28,103.65 1331.77,78.57 1331.77,195 1285.28,195 	"/>
	<linearGradient id="SVGID_18_" gradientUnits="userSpaceOnUse" x1="1492.4484" y1="195" x2="1492.4484" y2="78.5742">
		<stop  offset="0" style="stop-color:#212121"/>
		<stop  offset="1" style="stop-color:#000000"/>
	</linearGradient>
	<rect x="1331.77" y="78.57" class="st19" width="321.36" height="116.43"/>
	<linearGradient id="SVGID_19_" gradientUnits="userSpaceOnUse" x1="1630.6882" y1="156.1323" x2="1681.3936" y2="126.8576">
		<stop  offset="0" style="stop-color:#212121"/>
		<stop  offset="1" style="stop-color:#000000"/>
	</linearGradient>
	<polygon class="st20" points="1675.26,116.24 1653.13,78.57 1653.13,195 1675.26,195 	"/>
	<linearGradient id="SVGID_20_" gradientUnits="userSpaceOnUse" x1="1797.6309" y1="195" x2="1797.6309" y2="116.2635">
		<stop  offset="0" style="stop-color:#212121"/>
		<stop  offset="1" style="stop-color:#000000"/>
	</linearGradient>
	<rect x="1675.26" y="116.26" class="st21" width="244.74" height="78.74"/>
</g>
<g id="Calque_2" class="st2">
	<rect y="12.41" class="st22" width="108.35" height="182.59"/>
	<rect x="108.35" y="103.71" class="st22" width="244.56" height="91.29"/>
	<rect x="313.95" y="83.83" class="st22" width="111.17" height="111.17"/>
	<rect x="391.86" y="23.23" class="st22" width="119.03" height="171.77"/>
	<rect x="510.89" y="139.42" class="st22" width="240.23" height="55.58"/>
	<rect x="742.47" y="103.71" class="st22" width="194.78" height="91.29"/>
	<rect x="709.15" y="45" class="st22" width="102.94" height="150"/>
	<rect x="937.25" y="139.42" class="st22" width="148.67" height="55.58"/>
	<rect x="1085.92" y="83.83" class="st22" width="198.6" height="111.17"/>
	<rect x="1232.83" y="66.16" class="st22" width="128.84" height="128.84"/>
	<rect x="1356.32" y="120" class="st22" width="75" height="75"/>
	<rect x="1417.8" y="167.21" class="st22" width="204.4" height="27.79"/>
	<rect x="1588.14" y="130.58" class="st22" width="120.24" height="64.42"/>
	<rect x="1552.06" y="139.42" class="st22" width="70.14" height="55.58"/>
	<rect x="1708.37" y="66.16" class="st22" width="132.26" height="132.26"/>
	<rect x="1818.59" y="120" class="st22" width="101.41" height="75"/>
</g>
<g id="Calque_4" class="st2">
	<rect x="-0.14" y="97.63" class="st22" width="20" height="78.22"/>
	<rect y="97.63" class="st22" width="117.09" height="20"/>
	<rect x="80.33" y="137.63" class="st22" width="117.09" height="20"/>
	<rect x="177.25" y="97.63" class="st22" width="140.17" height="20"/>
	<rect x="297.42" y="155.75" class="st22" width="117.09" height="20"/>
	<rect x="297.42" y="117.63" class="st22" width="117.09" height="20"/>
	<rect x="534.51" y="155.75" class="st22" width="120.33" height="20"/>
	<rect x="434.51" y="137.63" class="st22" width="63.99" height="20"/>
	<rect x="-0.14" y="175" class="st22" width="1920.14" height="20"/>
	
		<rect x="30.99" y="146.75" transform="matrix(-1.836970e-16 1 -1 -1.836970e-16 206.8427 106.6481)" class="st22" width="38.22" height="20"/>
	
		<rect x="126.26" y="108.25" transform="matrix(-1.836970e-16 1 -1 -1.836970e-16 265.1213 -28.628)" class="st22" width="41.23" height="20"/>
	
		<rect x="197.61" y="135.94" transform="matrix(-1.836970e-16 1 -1 -1.836970e-16 373.3572 -81.4798)" class="st22" width="59.61" height="20"/>
	
		<rect x="102.31" y="155.75" transform="matrix(-1.836970e-16 1 -1 -1.836970e-16 278.0515 53.4392)" class="st22" width="20" height="20"/>
	
		<rect x="248.36" y="146.69" transform="matrix(-1.836970e-16 1 -1 -1.836970e-16 424.1079 -110.7292)" class="st22" width="38.11" height="20"/>
	
		<rect x="485.45" y="146.69" transform="matrix(-1.836970e-16 1 -1 -1.836970e-16 661.1956 -347.8169)" class="st22" width="38.11" height="20"/>
	
		<rect x="424.51" y="107.63" transform="matrix(-1.836970e-16 1 -1 -1.836970e-16 562.1396 -326.8729)" class="st22" width="40" height="20"/>
	
		<rect x="554.67" y="57.47" transform="matrix(-1.836970e-16 1 -1 -1.836970e-16 672.3044 -457.0377)" class="st22" width="20" height="100.33"/>
	
		<rect x="813.74" y="78.14" transform="matrix(-1.836970e-16 1 -1 -1.836970e-16 951.9576 -695.5125)" class="st22" width="20" height="100.16"/>
	
		<rect x="692.42" y="135.22" transform="matrix(-1.836970e-16 1 -1 -1.836970e-16 850.0554 -554.7887)" class="st22" width="20" height="24.83"/>
	
		<rect x="711.83" y="75.81" transform="matrix(-1.836970e-16 1 -1 -1.836970e-16 829.4637 -614.1971)" class="st22" width="20" height="63.64"/>
	
		<rect x="365.81" y="106.33" transform="matrix(-1.836970e-16 1 -1 -1.836970e-16 500.8398 -268.1727)" class="st22" width="37.4" height="20"/>
	
		<rect x="474.51" y="97.63" transform="matrix(-1.836970e-16 1 -1 -1.836970e-16 592.1396 -376.8729)" class="st22" width="20" height="20"/>
	
		<rect x="554.51" y="137.63" transform="matrix(-1.836970e-16 1 -1 -1.836970e-16 712.1396 -416.8729)" class="st22" width="20" height="20"/>
	
		<rect x="646.15" y="126.32" transform="matrix(-1.836970e-16 1 -1 -1.836970e-16 821.1526 -548.5193)" class="st22" width="77.37" height="20"/>
	
		<rect x="624.25" y="128.22" transform="matrix(-1.836970e-16 1 -1 -1.836970e-16 783.0585 -506.6133)" class="st22" width="41.18" height="20"/>
	
		<rect x="723.06" y="148.22" transform="matrix(-1.836970e-16 1 -1 -1.836970e-16 901.8752 -585.43)" class="st22" width="41.18" height="20"/>
	
		<rect x="882.84" y="127.83" transform="matrix(-1.836970e-16 1 -1 -1.836970e-16 1041.652 -765.983)" class="st22" width="41.95" height="20"/>
	
		<rect x="764.97" y="166.32" transform="matrix(-1.836970e-16 1 -1 -1.836970e-16 959.9693 -607.3359)" class="st22" width="37.37" height="20"/>
	
		<rect x="808.52" y="133.52" transform="matrix(-1.836970e-16 1 -1 -1.836970e-16 967.3347 -680.3002)" class="st22" width="30.59" height="20"/>
	
		<rect x="848.52" y="162.93" transform="matrix(-1.836970e-16 1 -1 -1.836970e-16 1036.7455 -690.8895)" class="st22" width="30.59" height="20"/>
	
		<rect x="828.52" y="102.93" transform="matrix(-1.836970e-16 1 -1 -1.836970e-16 956.7455 -730.8895)" class="st22" width="30.59" height="20"/>
	
		<rect x="904.21" y="87.24" transform="matrix(-1.836970e-16 1 -1 -1.836970e-16 1022.437 -806.5811)" class="st22" width="20.59" height="41.38"/>
	
		<rect x="946.4" y="86.23" transform="matrix(-1.836970e-16 1 -1 -1.836970e-16 1105.2112 -807.5875)" class="st22" width="20" height="125.16"/>
	
		<rect x="1051.02" y="41.82" transform="matrix(-1.836970e-16 1 -1 -1.836970e-16 1168.6516 -953.3849)" class="st22" width="20" height="131.64"/>
	
		<rect x="1155.49" y="114.94" transform="matrix(-1.836970e-16 1 -1 -1.836970e-16 1313.9166 -1017.0692)" class="st22" width="20" height="66.98"/>
	
		<rect x="1244.61" y="92.79" transform="matrix(-1.836970e-16 1 -1 -1.836970e-16 1383.0348 -1126.1873)" class="st22" width="20" height="71.26"/>
	
		<rect x="1300.72" y="68.89" transform="matrix(-1.836970e-16 1 -1 -1.836970e-16 1419.145 -1203.0879)" class="st22" width="20.79" height="78.27"/>
	
		<rect x="1284.61" y="132.79" transform="matrix(-1.836970e-16 1 -1 -1.836970e-16 1463.0348 -1126.1873)" class="st22" width="20" height="71.26"/>
	
		<rect x="1309.81" y="138.87" transform="matrix(-1.836970e-16 1 -1 -1.836970e-16 1469.1212 -1171.3831)" class="st22" width="20.89" height="20"/>
	
		<rect x="1361.76" y="146.92" transform="matrix(-1.836970e-16 1 -1 -1.836970e-16 1536.7584 -1203.3347)" class="st22" width="16.58" height="39.59"/>
	
		<rect x="1421.59" y="126.47" transform="matrix(-1.836970e-16 1 -1 -1.836970e-16 1575.6965 -1283.1635)" class="st22" width="15.69" height="39.59"/>
	
		<rect x="1551.48" y="96.37" transform="matrix(-1.836970e-16 1 -1 -1.836970e-16 1705.5938 -1413.0607)" class="st22" width="15.69" height="99.79"/>
	
		<rect x="1351.96" y="156.71" transform="matrix(-1.836970e-16 1 -1 -1.836970e-16 1526.964 -1193.5403)" class="st22" width="16.58" height="20"/>
	
		<rect x="1268.71" y="115.15" transform="matrix(-1.836970e-16 1 -1 -1.836970e-16 1407.1322 -1156.8292)" class="st22" width="26.54" height="20"/>
	
		<rect x="955.2" y="97.63" transform="matrix(-1 -1.224647e-16 1.224647e-16 -1 1930.4012 236.4452)" class="st22" width="20" height="41.18"/>
	
		<rect x="1078.98" y="111.44" transform="matrix(-1 -1.224647e-16 1.224647e-16 -1 2177.9622 269.8644)" class="st22" width="20" height="46.98"/>
	
		<rect x="1158.98" y="97.63" transform="matrix(-1 -1.224647e-16 1.224647e-16 -1 2337.9622 236.4452)" class="st22" width="20" height="41.18"/>
	
		<rect x="1195.09" y="61.53" transform="matrix(-1.836970e-16 1 -1 -1.836970e-16 1313.5095 -1097.4524)" class="st22" width="20.79" height="93"/>
	
		<rect x="1218.98" y="133.67" transform="matrix(-1 -1.224647e-16 1.224647e-16 -1 2457.9622 313.273)" class="st22" width="20" height="45.93"/>
	
		<rect x="1369.84" y="97.63" transform="matrix(-1 -1.224647e-16 1.224647e-16 -1 2759.6821 230.852)" class="st22" width="20" height="35.59"/>
	
		<rect x="1469.22" y="138.42" transform="matrix(-1 -1.224647e-16 1.224647e-16 -1 2958.4487 316.8475)" class="st22" width="20" height="40"/>
	
		<rect x="1549.22" y="117.63" transform="matrix(-1 -1.224647e-16 1.224647e-16 -1 3118.4487 258.0149)" class="st22" width="20" height="22.75"/>
	
		<rect x="1629.22" y="138.42" transform="matrix(-1 -1.224647e-16 1.224647e-16 -1 3278.4487 318.1173)" class="st22" width="20" height="41.27"/>
	
		<rect x="1809.22" y="99.11" transform="matrix(-1 -1.224647e-16 1.224647e-16 -1 3638.4487 239.4932)" class="st22" width="20" height="41.27"/>
	
		<rect x="1824.22" y="94.11" transform="matrix(-1.836970e-16 1 -1 -1.836970e-16 1943.3361 -1725.1127)" class="st22" width="20" height="30"/>
	
		<rect x="1904.61" y="103.72" transform="matrix(-1.836970e-16 1 -1 -1.836970e-16 2023.7239 -1805.5005)" class="st22" width="20" height="10.78"/>
	
		<rect x="1869.22" y="119.75" transform="matrix(-1 -1.224647e-16 1.224647e-16 -1 3758.4487 261.2697)" class="st22" width="20" height="21.78"/>
	
		<rect x="1849.22" y="140.47" transform="matrix(-1 -1.224647e-16 1.224647e-16 -1 3718.4487 316.9926)" class="st22" width="20" height="36.06"/>
	
		<rect x="1669.22" y="99.11" transform="matrix(-1 -1.224647e-16 1.224647e-16 -1 3358.4487 253.221)" class="st22" width="20" height="55"/>
	
		<rect x="1720.87" y="66.47" transform="matrix(6.123234e-17 -1 1 6.123234e-17 1621.7565 1839.9799)" class="st22" width="20" height="85.29"/>
	
		<rect x="1874.61" y="115.08" transform="matrix(6.123234e-17 -1 1 6.123234e-17 1734.1445 2035.0798)" class="st22" width="20" height="70.78"/>
	
		<rect x="1727.03" y="136.3" transform="matrix(6.123234e-17 -1 1 6.123234e-17 1592.9216 1885.5272)" class="st22" width="24.39" height="20"/>
	
		<rect x="1749.53" y="118.8" transform="matrix(6.123234e-17 -1 1 6.123234e-17 1650.4204 1908.0284)" class="st22" width="59.38" height="20"/>
	
		<rect x="1589.22" y="97.63" transform="matrix(-1 -1.224647e-16 1.224647e-16 -1 3198.4487 238.0149)" class="st22" width="20" height="42.75"/>
	
		<rect x="1509.22" y="104" transform="matrix(-1 -1.224647e-16 1.224647e-16 -1 3038.4487 258.1043)" class="st22" width="20" height="50.11"/>
	
		<rect x="1468.32" y="56.73" transform="matrix(6.123234e-17 -1 1 6.123234e-17 1370.6869 1585.9536)" class="st22" width="20" height="101.81"/>
	
		<rect x="1631.07" y="80.85" transform="matrix(6.123234e-17 -1 1 6.123234e-17 1512.0604 1770.0753)" class="st22" width="20" height="96.31"/>
	
		<rect x="1738.06" y="125.27" transform="matrix(6.123234e-17 -1 1 6.123234e-17 1583.9504 1914.4984)" class="st22" width="22.33" height="80"/>
	
		<rect x="1409.64" y="97.63" transform="matrix(-1 -1.224647e-16 1.224647e-16 -1 2839.271 236.0571)" class="st22" width="20" height="40.79"/>
	
		<rect x="1118.98" y="97.63" transform="matrix(-1 -1.224647e-16 1.224647e-16 -1 2257.9622 272.6334)" class="st22" width="20" height="77.37"/>
	
		<rect x="1038.98" y="138.81" transform="matrix(-1 -1.224647e-16 1.224647e-16 -1 2097.9622 318.8022)" class="st22" width="20" height="41.18"/>
	
		<rect x="772.71" y="98.57" transform="matrix(-1.836970e-16 1 -1 -1.836970e-16 892.225 -675.0802)" class="st22" width="21.88" height="20"/>
	
		<rect x="594.84" y="117.63" transform="matrix(-1.836970e-16 1 -1 -1.836970e-16 732.4693 -477.2026)" class="st22" width="20" height="20"/>
</g>
<g id="Calque_5">
	<rect x="0" y="40.55" class="st23" width="10.16" height="39.73"/>
	<rect x="0.07" y="40.55" class="st23" width="59.47" height="10.16"/>
	<rect x="40.87" y="60.87" class="st23" width="59.47" height="10.16"/>
	<rect x="90.11" y="40.55" class="st23" width="71.2" height="10.16"/>
	<rect x="151.14" y="70.07" class="st23" width="59.47" height="10.16"/>
	<rect x="151.14" y="50.71" class="st23" width="59.47" height="10.16"/>
	<rect x="271.57" y="70.07" class="st23" width="61.12" height="10.16"/>
	<rect x="220.78" y="60.87" class="st23" width="32.51" height="10.16"/>
	<rect x="0" y="79.85" class="st23" width="980.02" height="10.16"/>
	
		<rect x="15.81" y="65.49" transform="matrix(-1.836970e-16 1 -1 -1.836970e-16 96.0895 45.0567)" class="st23" width="19.42" height="10.16"/>
	
		<rect x="64.2" y="45.94" transform="matrix(-1.836970e-16 1 -1 -1.836970e-16 125.6923 -23.657)" class="st23" width="20.94" height="10.16"/>
	
		<rect x="100.45" y="60" transform="matrix(-1.836970e-16 1 -1 -1.836970e-16 180.671 -50.5032)" class="st23" width="30.28" height="10.16"/>
	
		<rect x="52.04" y="70.07" transform="matrix(-1.836970e-16 1 -1 -1.836970e-16 132.2602 18.0292)" class="st23" width="10.16" height="10.16"/>
	
		<rect x="126.23" y="65.47" transform="matrix(-1.836970e-16 1 -1 -1.836970e-16 206.4498 -65.3605)" class="st23" width="19.36" height="10.16"/>
	
		<rect x="246.65" y="65.47" transform="matrix(-1.836970e-16 1 -1 -1.836970e-16 326.879 -185.7896)" class="st23" width="19.36" height="10.16"/>
	
		<rect x="215.7" y="45.63" transform="matrix(-1.836970e-16 1 -1 -1.836970e-16 276.5633 -175.1511)" class="st23" width="20.32" height="10.16"/>
	
		<rect x="281.82" y="20.15" transform="matrix(-1.836970e-16 1 -1 -1.836970e-16 332.5218 -241.2686)" class="st23" width="10.16" height="50.96"/>
	
		<rect x="413.41" y="30.65" transform="matrix(-1.836970e-16 1 -1 -1.836970e-16 474.5721 -362.4023)" class="st23" width="10.16" height="50.88"/>
	
		<rect x="351.79" y="59.64" transform="matrix(-1.836970e-16 1 -1 -1.836970e-16 422.8107 -290.9214)" class="st23" width="10.16" height="12.61"/>
	
		<rect x="361.65" y="29.46" transform="matrix(-1.836970e-16 1 -1 -1.836970e-16 412.3511 -321.0979)" class="st23" width="10.16" height="32.33"/>
	
		<rect x="185.88" y="44.97" transform="matrix(-1.836970e-16 1 -1 -1.836970e-16 245.4259 -145.3342)" class="st23" width="19" height="10.16"/>
	
		<rect x="241.1" y="40.55" transform="matrix(-1.836970e-16 1 -1 -1.836970e-16 291.8019 -200.5487)" class="st23" width="10.16" height="10.16"/>
	
		<rect x="281.73" y="60.87" transform="matrix(-1.836970e-16 1 -1 -1.836970e-16 352.7561 -220.8667)" class="st23" width="10.16" height="10.16"/>
	
		<rect x="328.28" y="55.12" transform="matrix(-1.836970e-16 1 -1 -1.836970e-16 408.1295 -287.7368)" class="st23" width="39.3" height="10.16"/>
	
		<rect x="317.16" y="56.08" transform="matrix(-1.836970e-16 1 -1 -1.836970e-16 388.7795 -266.4506)" class="st23" width="20.92" height="10.16"/>
	
		<rect x="367.35" y="66.24" transform="matrix(-1.836970e-16 1 -1 -1.836970e-16 449.1327 -306.4857)" class="st23" width="20.92" height="10.16"/>
	
		<rect x="448.51" y="55.89" transform="matrix(-1.836970e-16 1 -1 -1.836970e-16 520.1325 -398.1979)" class="st23" width="21.31" height="10.16"/>
	
		<rect x="388.64" y="75.43" transform="matrix(-1.836970e-16 1 -1 -1.836970e-16 478.6417 -317.6128)" class="st23" width="18.98" height="10.16"/>
	
		<rect x="410.76" y="58.77" transform="matrix(-1.836970e-16 1 -1 -1.836970e-16 482.3829 -354.6752)" class="st23" width="15.54" height="10.16"/>
	
		<rect x="431.08" y="73.71" transform="matrix(-1.836970e-16 1 -1 -1.836970e-16 517.6403 -360.054)" class="st23" width="15.54" height="10.16"/>
	
		<rect x="420.92" y="43.24" transform="matrix(-1.836970e-16 1 -1 -1.836970e-16 477.0041 -380.3721)" class="st23" width="15.54" height="10.16"/>
	
		<rect x="459.37" y="35.27" transform="matrix(-1.836970e-16 1 -1 -1.836970e-16 510.3723 -418.8198)" class="st23" width="10.46" height="21.02"/>
	
		<rect x="480.79" y="34.75" transform="matrix(-1.836970e-16 1 -1 -1.836970e-16 552.4175 -419.331)" class="st23" width="10.16" height="63.58"/>
	
		<rect x="533.94" y="12.19" transform="matrix(-1.836970e-16 1 -1 -1.836970e-16 584.6423 -493.3891)" class="st23" width="10.16" height="66.86"/>
	
		<rect x="587" y="49.34" transform="matrix(-1.836970e-16 1 -1 -1.836970e-16 658.4299 -525.7376)" class="st23" width="10.16" height="34.02"/>
	
		<rect x="632.27" y="38.09" transform="matrix(-1.836970e-16 1 -1 -1.836970e-16 693.5386 -581.1644)" class="st23" width="10.16" height="36.2"/>
	
		<rect x="660.77" y="25.95" transform="matrix(-1.836970e-16 1 -1 -1.836970e-16 711.8808 -620.2261)" class="st23" width="10.56" height="39.76"/>
	
		<rect x="652.59" y="58.41" transform="matrix(-1.836970e-16 1 -1 -1.836970e-16 734.1747 -581.1644)" class="st23" width="10.16" height="36.2"/>
	
		<rect x="665.39" y="61.49" transform="matrix(-1.836970e-16 1 -1 -1.836970e-16 737.2664 -604.1216)" class="st23" width="10.61" height="10.16"/>
	
		<rect x="691.78" y="65.58" transform="matrix(-1.836970e-16 1 -1 -1.836970e-16 771.6228 -620.3516)" class="st23" width="8.42" height="20.11"/>
	
		<rect x="722.17" y="55.2" transform="matrix(-1.836970e-16 1 -1 -1.836970e-16 791.4015 -660.9007)" class="st23" width="7.97" height="20.11"/>
	
		<rect x="788.15" y="39.9" transform="matrix(-1.836970e-16 1 -1 -1.836970e-16 857.383 -726.8823)" class="st23" width="7.97" height="50.69"/>
	
		<rect x="686.8" y="70.56" transform="matrix(-1.836970e-16 1 -1 -1.836970e-16 766.6477 -615.3764)" class="st23" width="8.42" height="10.16"/>
	
		<rect x="644.51" y="49.45" transform="matrix(-1.836970e-16 1 -1 -1.836970e-16 705.7789 -596.729)" class="st23" width="13.48" height="10.16"/>
	
		<rect x="485.27" y="40.55" transform="matrix(-1 -1.224647e-16 1.224647e-16 -1 980.6898 102.0108)" class="st23" width="10.16" height="20.92"/>
	
		<rect x="548.14" y="47.56" transform="matrix(-1 -1.224647e-16 1.224647e-16 -1 1106.4388 118.9862)" class="st23" width="10.16" height="23.87"/>
	
		<rect x="588.78" y="40.55" transform="matrix(-1 -1.224647e-16 1.224647e-16 -1 1187.7112 102.0108)" class="st23" width="10.16" height="20.92"/>
	
		<rect x="607.12" y="22.21" transform="matrix(-1.836970e-16 1 -1 -1.836970e-16 658.2231 -566.5684)" class="st23" width="10.56" height="47.24"/>
	
		<rect x="619.25" y="58.85" transform="matrix(-1 -1.224647e-16 1.224647e-16 -1 1248.6654 141.0357)" class="st23" width="10.16" height="23.33"/>
	
		<rect x="695.88" y="40.55" transform="matrix(-1 -1.224647e-16 1.224647e-16 -1 1401.9246 99.1698)" class="st23" width="10.16" height="18.08"/>
	
		<rect x="746.36" y="61.27" transform="matrix(-1 -1.224647e-16 1.224647e-16 -1 1502.8885 142.8513)" class="st23" width="10.16" height="20.32"/>
	
		<rect x="787" y="50.71" transform="matrix(-1 -1.224647e-16 1.224647e-16 -1 1584.1609 112.9672)" class="st23" width="10.16" height="11.55"/>
	
		<rect x="827.64" y="61.27" transform="matrix(-1 -1.224647e-16 1.224647e-16 -1 1665.4331 143.4964)" class="st23" width="10.16" height="20.96"/>
	
		<rect x="919.07" y="41.3" transform="matrix(-1 -1.224647e-16 1.224647e-16 -1 1848.2958 103.5591)" class="st23" width="10.16" height="20.96"/>
	
		<rect x="926.69" y="38.76" transform="matrix(-1.836970e-16 1 -1 -1.836970e-16 978.1447 -885.3897)" class="st23" width="10.16" height="15.24"/>
	
		<rect x="969.86" y="41.3" transform="matrix(-1.836970e-16 1 -1 -1.836970e-16 1021.3206 -928.5656)" class="st23" width="10.16" height="10.16"/>
	
		<rect x="949.55" y="51.78" transform="matrix(-1 -1.224647e-16 1.224647e-16 -1 1909.25 114.6205)" class="st23" width="10.16" height="11.06"/>
	
		<rect x="939.39" y="62.3" transform="matrix(-1 -1.224647e-16 1.224647e-16 -1 1888.932 142.925)" class="st23" width="10.16" height="18.32"/>
	
		<rect x="847.96" y="41.3" transform="matrix(-1 -1.224647e-16 1.224647e-16 -1 1706.0693 110.5321)" class="st23" width="10.16" height="27.94"/>
	
		<rect x="874.19" y="24.72" transform="matrix(6.123234e-17 -1 1 6.123234e-17 832.8896 925.6447)" class="st23" width="10.16" height="43.32"/>
	
		<rect x="954.62" y="47.07" transform="matrix(6.123234e-17 -1 1 6.123234e-17 892.3202 1027.0889)" class="st23" width="10.16" height="40.64"/>
	
		<rect x="877.32" y="60.19" transform="matrix(6.123234e-17 -1 1 6.123234e-17 818.2429 948.7806)" class="st23" width="12.39" height="10.16"/>
	
		<rect x="888.75" y="51.3" transform="matrix(6.123234e-17 -1 1 6.123234e-17 847.4496 960.2101)" class="st23" width="30.16" height="10.16"/>
	
		<rect x="807.32" y="40.55" transform="matrix(-1 -1.224647e-16 1.224647e-16 -1 1624.797 102.8082)" class="st23" width="10.16" height="21.71"/>
	
		<rect x="766.68" y="43.78" transform="matrix(-1 -1.224647e-16 1.224647e-16 -1 1543.5247 113.0126)" class="st23" width="10.16" height="25.46"/>
	
		<rect x="745.91" y="19.77" transform="matrix(6.123234e-17 -1 1 6.123234e-17 705.3584 796.6116)" class="st23" width="10.16" height="51.71"/>
	
		<rect x="828.57" y="32.02" transform="matrix(6.123234e-17 -1 1 6.123234e-17 777.1693 890.1365)" class="st23" width="10.16" height="48.92"/>
	
		<rect x="882.92" y="54.59" transform="matrix(6.123234e-17 -1 1 6.123234e-17 813.686 963.4966)" class="st23" width="11.34" height="40.64"/>
	
		<rect x="716.1" y="40.55" transform="matrix(-1 -1.224647e-16 1.224647e-16 -1 1442.3519 101.8137)" class="st23" width="10.16" height="20.72"/>
	
		<rect x="568.46" y="40.55" transform="matrix(-1 -1.224647e-16 1.224647e-16 -1 1147.0751 120.3927)" class="st23" width="10.16" height="39.3"/>
	
		<rect x="527.82" y="61.46" transform="matrix(-1 -1.224647e-16 1.224647e-16 -1 1065.8027 143.8442)" class="st23" width="10.16" height="20.92"/>
	
		<rect x="392.57" y="41.02" transform="matrix(-1.836970e-16 1 -1 -1.836970e-16 444.2308 -352.0237)" class="st23" width="11.11" height="10.16"/>
	
		<rect x="302.22" y="50.71" transform="matrix(-1.836970e-16 1 -1 -1.836970e-16 363.0826 -251.5113)" class="st23" width="10.16" height="10.16"/>
	
		<rect x="1889.82" y="40.55" transform="matrix(-1 -8.848801e-11 8.848801e-11 -1 3809.8237 91.2532)" class="st23" width="30.18" height="10.16"/>
	
		<rect x="1849.02" y="60.87" transform="matrix(-1 -4.489754e-11 4.489754e-11 -1 3757.5134 131.8893)" class="st23" width="59.47" height="10.16"/>
	
		<rect x="1788.06" y="40.55" transform="matrix(-1 -4.488910e-11 4.488910e-11 -1 3647.3274 91.2532)" class="st23" width="71.2" height="10.16"/>
	
		<rect x="1738.75" y="70.07" transform="matrix(-1 -4.489754e-11 4.489754e-11 -1 3536.9731 150.2894)" class="st23" width="59.47" height="10.16"/>
	
		<rect x="1738.75" y="50.71" transform="matrix(-1 -4.489754e-11 4.489754e-11 -1 3536.9731 111.5713)" class="st23" width="59.47" height="10.16"/>
	
		<rect x="1616.67" y="70.07" transform="matrix(-1 -4.487844e-11 4.487844e-11 -1 3294.468 150.2894)" class="st23" width="61.12" height="10.16"/>
	
		<rect x="1696.08" y="60.87" transform="matrix(-1 -4.487933e-11 4.487933e-11 -1 3424.6743 131.8893)" class="st23" width="32.51" height="10.16"/>
	
		<rect x="979.62" y="79.85" transform="matrix(-1 -4.656510e-11 4.656510e-11 -1 2899.6226 169.8503)" class="st23" width="940.38" height="10.16"/>
	
		<rect x="1909.68" y="69.96" transform="matrix(-5.621465e-12 1 -1 -5.621465e-12 1989.9591 -1848.8129)" class="st23" width="19.42" height="1.23"/>
	
		<rect x="1864.22" y="45.94" transform="matrix(-4.534169e-11 1 -1 -4.534169e-11 1925.7107 -1823.6754)" class="st23" width="20.94" height="10.16"/>
	
		<rect x="1818.64" y="60" transform="matrix(-4.457253e-11 1 -1 -4.457253e-11 1898.8645 -1768.6968)" class="st23" width="30.28" height="10.16"/>
	
		<rect x="1887.17" y="70.07" transform="matrix(-4.422614e-11 1 -1 -4.422614e-11 1967.3969 -1817.1075)" class="st23" width="10.16" height="10.16"/>
	
		<rect x="1803.78" y="65.47" transform="matrix(-4.444374e-11 1 -1 -4.444374e-11 1884.0073 -1742.9178)" class="st23" width="19.36" height="10.16"/>
	
		<rect x="1683.35" y="65.47" transform="matrix(-4.444374e-11 1 -1 -4.444374e-11 1763.5781 -1622.4888)" class="st23" width="19.36" height="10.16"/>
	
		<rect x="1713.35" y="45.63" transform="matrix(-4.485231e-11 1 -1 -4.485231e-11 1774.2167 -1672.8044)" class="st23" width="20.32" height="10.16"/>
	
		<rect x="1657.39" y="20.15" transform="matrix(-4.529995e-11 1 -1 -4.529995e-11 1708.0991 -1616.8459)" class="st23" width="10.16" height="50.96"/>
	
		<rect x="1525.8" y="30.65" transform="matrix(-4.529995e-11 1 -1 -4.529995e-11 1586.9655 -1474.7957)" class="st23" width="10.16" height="50.88"/>
	
		<rect x="1587.42" y="59.64" transform="matrix(-4.512142e-11 1 -1 -4.512142e-11 1658.4464 -1526.557)" class="st23" width="10.16" height="12.61"/>
	
		<rect x="1577.56" y="29.46" transform="matrix(-4.440466e-11 1 -1 -4.440466e-11 1628.2698 -1537.0166)" class="st23" width="10.16" height="32.33"/>
	
		<rect x="1744.49" y="44.97" transform="matrix(-4.481056e-11 1 -1 -4.481056e-11 1804.0336 -1703.9418)" class="st23" width="19" height="10.16"/>
	
		<rect x="1698.11" y="40.55" transform="matrix(-4.529995e-11 1 -1 -4.529995e-11 1748.8191 -1657.5659)" class="st23" width="10.16" height="10.16"/>
	
		<rect x="1657.48" y="60.87" transform="matrix(-4.440466e-11 1 -1 -4.440466e-11 1728.501 -1596.6117)" class="st23" width="10.16" height="10.16"/>
	
		<rect x="1581.79" y="55.12" transform="matrix(-4.503705e-11 1 -1 -4.503705e-11 1661.631 -1541.2383)" class="st23" width="39.3" height="10.16"/>
	
		<rect x="1611.29" y="56.08" transform="matrix(-4.548202e-11 1 -1 -4.548202e-11 1682.9171 -1560.5883)" class="st23" width="20.92" height="10.16"/>
	
		<rect x="1561.1" y="66.24" transform="matrix(-4.495978e-11 1 -1 -4.495978e-11 1642.8821 -1500.2351)" class="st23" width="20.92" height="10.16"/>
	
		<rect x="1479.55" y="55.89" transform="matrix(-4.464092e-11 1 -1 -4.464092e-11 1551.1698 -1429.2352)" class="st23" width="21.31" height="10.16"/>
	
		<rect x="1541.75" y="75.43" transform="matrix(-4.475549e-11 1 -1 -4.475549e-11 1631.7549 -1470.7261)" class="st23" width="18.98" height="10.16"/>
	
		<rect x="1523.07" y="58.77" transform="matrix(-4.436914e-11 1 -1 -4.436914e-11 1594.6925 -1466.9849)" class="st23" width="15.54" height="10.16"/>
	
		<rect x="1502.75" y="73.71" transform="matrix(-4.448638e-11 1 -1 -4.448638e-11 1589.3137 -1431.7275)" class="st23" width="15.54" height="10.16"/>
	
		<rect x="1512.91" y="43.24" transform="matrix(-4.448638e-11 1 -1 -4.448638e-11 1568.9956 -1472.3636)" class="st23" width="15.54" height="10.16"/>
	
		<rect x="1479.54" y="35.27" transform="matrix(-4.487362e-11 1 -1 -4.487362e-11 1530.548 -1438.9955)" class="st23" width="10.46" height="21.02"/>
	
		<rect x="1458.41" y="34.75" transform="matrix(-4.440466e-11 1 -1 -4.440466e-11 1530.0367 -1396.9502)" class="st23" width="10.16" height="63.58"/>
	
		<rect x="1405.27" y="12.19" transform="matrix(-4.529995e-11 1 -1 -4.529995e-11 1455.9786 -1364.7255)" class="st23" width="10.16" height="66.86"/>
	
		<rect x="1352.2" y="49.34" transform="matrix(-4.422614e-11 1 -1 -4.422614e-11 1423.6301 -1290.9379)" class="st23" width="10.16" height="34.02"/>
	
		<rect x="1306.94" y="38.09" transform="matrix(-4.440466e-11 1 -1 -4.440466e-11 1368.2034 -1255.8292)" class="st23" width="10.16" height="36.2"/>
	
		<rect x="1278.03" y="25.95" transform="matrix(-4.461161e-11 1 -1 -4.461161e-11 1329.1416 -1237.4869)" class="st23" width="10.56" height="39.76"/>
	
		<rect x="1286.62" y="58.41" transform="matrix(-4.529995e-11 1 -1 -4.529995e-11 1368.2034 -1215.193)" class="st23" width="10.16" height="36.2"/>
	
		<rect x="1273.37" y="61.49" transform="matrix(-4.508323e-11 1 -1 -4.508323e-11 1345.2461 -1212.1014)" class="st23" width="10.61" height="10.16"/>
	
		<rect x="1249.17" y="65.58" transform="matrix(-4.515162e-11 1 -1 -4.515162e-11 1329.0162 -1177.7449)" class="st23" width="8.42" height="20.11"/>
	
		<rect x="1219.23" y="55.2" transform="matrix(-4.520402e-11 1 -1 -4.520402e-11 1288.467 -1157.9663)" class="st23" width="7.97" height="20.11"/>
	
		<rect x="1153.25" y="39.9" transform="matrix(-4.520402e-11 1 -1 -4.520402e-11 1222.4855 -1091.9847)" class="st23" width="7.97" height="50.69"/>
	
		<rect x="1254.15" y="70.56" transform="matrix(-4.515162e-11 1 -1 -4.515162e-11 1333.9913 -1182.7201)" class="st23" width="8.42" height="10.16"/>
	
		<rect x="1291.37" y="49.45" transform="matrix(-4.532926e-11 1 -1 -4.532926e-11 1352.6388 -1243.5889)" class="st23" width="13.48" height="10.16"/>
	<rect x="1453.94" y="40.55" class="st23" width="10.16" height="20.92"/>
	<rect x="1391.07" y="47.56" class="st23" width="10.16" height="23.87"/>
	<rect x="1350.43" y="40.55" class="st23" width="10.16" height="20.92"/>
	
		<rect x="1331.69" y="22.21" transform="matrix(-4.547314e-11 1 -1 -4.547314e-11 1382.7993 -1291.1447)" class="st23" width="10.56" height="47.24"/>
	<rect x="1319.96" y="58.85" class="st23" width="10.16" height="23.33"/>
	<rect x="1243.33" y="40.55" class="st23" width="10.16" height="18.08"/>
	<rect x="1192.84" y="61.27" class="st23" width="10.16" height="20.32"/>
	<rect x="1152.21" y="50.71" class="st23" width="10.16" height="11.55"/>
	<rect x="1111.57" y="61.27" class="st23" width="10.16" height="20.96"/>
	<rect x="1020.14" y="41.3" class="st23" width="10.16" height="20.96"/>
	
		<rect x="1012.52" y="38.76" transform="matrix(-4.440466e-11 1 -1 -4.440466e-11 1063.978 -971.223)" class="st23" width="10.16" height="15.24"/>
	<rect x="989.66" y="51.78" class="st23" width="10.16" height="11.06"/>
	<rect x="999.82" y="62.3" class="st23" width="10.16" height="18.32"/>
	<rect x="1091.25" y="41.3" class="st23" width="10.16" height="27.94"/>
	
		<rect x="1065.02" y="24.72" transform="matrix(4.512130e-11 -1 1 4.512130e-11 1023.723 1116.478)" class="st23" width="10.16" height="43.32"/>
	
		<rect x="989.72" y="52.2" transform="matrix(3.777962e-11 -1 1 3.777962e-11 927.4175 1062.1863)" class="st23" width="10.16" height="30.36"/>
	
		<rect x="1059.66" y="60.19" transform="matrix(4.434681e-11 -1 1 4.434681e-11 1000.5872 1131.1248)" class="st23" width="12.39" height="10.16"/>
	
		<rect x="1030.46" y="51.3" transform="matrix(4.480511e-11 -1 1 4.480511e-11 989.1577 1101.9182)" class="st23" width="30.16" height="10.16"/>
	<rect x="1131.89" y="40.55" class="st23" width="10.16" height="21.71"/>
	<rect x="1172.53" y="43.78" class="st23" width="10.16" height="25.46"/>
	
		<rect x="1193.3" y="19.77" transform="matrix(4.422602e-11 -1 1 4.422602e-11 1152.7562 1244.0094)" class="st23" width="10.16" height="51.71"/>
	
		<rect x="1110.64" y="32.02" transform="matrix(4.529983e-11 -1 1 4.529983e-11 1059.2312 1172.1984)" class="st23" width="10.16" height="48.92"/>
	
		<rect x="1055.11" y="54.59" transform="matrix(4.490459e-11 -1 1 4.490459e-11 985.8712 1135.6818)" class="st23" width="11.34" height="40.64"/>
	<rect x="1223.11" y="40.55" class="st23" width="10.16" height="20.72"/>
	<rect x="1370.75" y="40.55" class="st23" width="10.16" height="39.3"/>
	<rect x="1411.39" y="61.46" class="st23" width="10.16" height="20.92"/>
	
		<rect x="1545.68" y="41.02" transform="matrix(-4.501218e-11 1 -1 -4.501218e-11 1597.3441 -1505.137)" class="st23" width="11.11" height="10.16"/>
	
		<rect x="1636.99" y="50.71" transform="matrix(-4.440466e-11 1 -1 -4.440466e-11 1697.8564 -1586.2852)" class="st23" width="10.16" height="10.16"/>
</g>
</svg>
