<?xml version="1.0" encoding="utf-8"?>
<!-- Generator: Adobe Illustrator 24.0.1, SVG Export Plug-In . SVG Version: 6.00 Build 0)  -->
<svg version="1.1" xmlns="http://www.w3.org/2000/svg" xmlns:xlink="http://www.w3.org/1999/xlink" x="0px" y="0px"
	 viewBox="0 0 256 512" style="enable-background:new 0 0 256 512;" xml:space="preserve">
<style type="text/css">
	.st0{display:none;}
	.st1{display:inline;}
	.st2{display:inline;fill:#FA43FF;}
	.st3{display:inline;fill:#E2C8B4;stroke:#938276;stroke-miterlimit:10;}
	.st4{display:inline;fill:#212121;}
	.st5{display:inline;fill:#E2C8B4;stroke:#938276;stroke-width:0.5;stroke-miterlimit:10;}
	.st6{display:inline;fill:#E2C8B4;}
	.st7{display:inline;fill:url(#pec_gauche_1_);}
	.st8{display:inline;fill:url(#ombre_pied_gauche_1_);}
	.st9{display:inline;fill:url(#pec_droit_1_);}
	.st10{display:inline;fill:url(#ombre_cou_1_);}
	.st11{display:inline;fill:url(#Ombre_ventre_1_);}
	.st12{fill:#E2C8B4;}
	.st13{display:inline;fill:#938276;}
	.st14{display:inline;fill:url(#ombre_bras_gauche_1_);}
	.st15{display:inline;fill:url(#SVGID_1_);}
	.st16{fill:#FFFFFF;}
	.st17{fill:#795A00;}
	.st18{fill:#938276;}
	.st19{fill:url(#SVGID_2_);}
	.st20{fill:#948478;}
	.st21{fill:#001109;}
	.st22{display:none;fill:#001109;}
</style>
<g id="Calque_1" class="st0">
	<image style="display:inline;overflow:visible;" width="256" height="512" xlink:href="../Modele/corps_p0_@1X.png" >
	</image>
	<image style="display:inline;overflow:visible;" width="256" height="512" xlink:href="../Modele/mainDroite_p0_m0_@1X.png" >
	</image>
	<image style="display:inline;overflow:visible;" width="256" height="512" xlink:href="../Modele/mainGauche_p0_m0_@1X.png" >
	</image>
	<image style="display:inline;overflow:visible;" width="256" height="512" xlink:href="../Modele/visage_5_p0_@1X.png" >
	</image>
</g>
<g id="Calque_2" class="st0">
	<g id="Calque_3" class="st1">
	</g>
	<path class="st2" d="M148,67v14.9c0,2.6,1.3,4.9,3.5,6.3l18.4,11.3c2.7,1.7,5.7,3,8.8,3.8l0.1,0c4,1.1,7.6,3.5,10.1,6.7
		c1.6,2.1,3.1,4,3.1,4l1.7,4.9c2.1,6,3,12.4,2.4,18.7l0,0c-0.1,1.6,0,3.1,0.3,4.7l1.4,4.1c2.7,7.7,4.1,15.8,4.1,23.9l0,0
		c3.8,8.6,5,18.1,3.6,27.3l-1.1,6.9c-0.4,2.3-0.9,4.6-1.6,6.9l-3.9,13.2c-2.7,8.9-4.4,18.1-5,27.4v0l1,16l-6,10l-5,5h-3h-1v1h-2v1
		h-1h-1h-1v1h-1v1l-0.4,0.4c-0.4,0.4-0.9,0.6-1.5,0.6l0,0c-0.7,0-1.4-0.3-1.9-0.8l-0.4-0.4c-1.8-1.8,4.8-7.3,5.2-7.8l0,0
		c1.9-4.5,2.4-9.6,1.2-14.4L175,260l-2-3l-1,4c-0.7,2.6-1.5,5.2-2.6,7.7l-0.8,1.8c-1.6,2.4-3.3,1.6-3.6,1.4
		c-1.2-0.6-1.4-1.9-0.9-3.1c1-2.6,3.9-4.9,3.9-11.9V254l8-7.4c2.4-2.2,4-4.6,4-8.6l-1.2-8.4c-1.8-12.3-1.7-24.9,0.3-37.2l1-5.8
		c0.5-3.1,0.1-8.1-1-11l-3-8.6l-4.6-14.8c-0.1-0.4-0.7-0.4-0.8,0L161,176v0c-3.9,7.2-6,15.3-6,23.5v3.3c0,4.7,1.4,9.3,4,13.2l0,0
		l-8,6l-4.5,1.9c-12.2,5.3-25.4,8.1-38.7,8.1l-17.1-1.6c-2-0.2-3.4-2-3.2-4L90,207l3-32v-20l-2.7-7.1c-1.5-3.9-2.1-8.1-1.9-12.3
		l0.3-4.2c0.2-3.6,1-7.1,2.4-10.5l2.8-7c0.8-1.9,1.8-3.7,3.1-5.4l2.5-4.4c2.9-5.1,7.9-8.8,13.7-9.9L115,93l3.6-3.6
		c0.9-0.9,1.2-2.2,0.9-3.4L119,72l27-5H148z"/>
	<path class="st2" d="M57,478l7.6-0.5c4.9-0.3,9.7-1.4,14.3-3.1h0c0.7-0.3,1.5-0.4,2.3-0.4h23.7c3.6,0,6.6-2.5,7.3-6l0,0
		c0.5-2.6,0.1-5.2-1.2-7.5l-0.7-1.2c-1.1-1.9-1.7-4.1-1.6-6.3l0,0c0.2-9.3,1-18.6,2.4-27.8l0.3-1.3c2.4-9.9,5.2-19.7,8.4-29.4l0,0
		c1.4-6.9,1.5-14,0.2-21l-1-5.5l-4.2-13.2c-1.8-5.7-1.9-11.8-0.2-17.6l5.3-18.4c0.7-2.5,1.3-5.1,1.7-7.7L126,283l-3-54l-35.6-1.4
		l0,0C84,239,82,249,81,262l-1,26l0.9,33.1c0.1,3.3,0.1,6.6-0.1,9.9l-1.4,11.4c-0.9,6.9,0.8,13.8,4.8,19.5l0.8,2.2
		c1.4,3.9,0.1,7.9,0.8,12.1l3.6,29.6c1.1,9.5,1.2,19.1,0.1,28.6l-0.9,8.2c-0.3,2.2-1.4,4.3-3.1,5.7L69,461c-1.2,1-2.4,3-4,3h-5v1h-2
		v1h-2v1h-2v1h-2v1l-1.8,0.7c-1.6,0.6-2.2,2.7-1.1,4.1L50,475l4,2L57,478z"/>
	<path class="st2" d="M181,472l2,8l-1,18l-5,3h-3h-6v1h-5h-6h-6l-1.6-1.1c-0.8-0.5-1-1.5-0.6-2.3l5.4-10.1c1.2-2.3,2.8-4.4,4.6-6.2
		l0.1-0.2c1.4-3.4,2.5-6.9,3.1-10.5l0.7-5.8c0.3-2.5,0.4-5.1,0.3-7.6l0-6.3c0.1-14.5-2.2-28.9-6.8-42.7l-1.1-5.9
		c-0.7-3.5-1.1-7.1-1.3-10.7l-0.5-9.7c-0.2-3.3-0.9-6.5-2-9.5l-5-12.7c-1.5-3.7-2-7.8-1.6-11.8l0.1-0.5c0.2-1.7-0.2-3.5-1.1-5h0
		c-5-8.2-8.3-17.3-9.5-26.9l-0.4-2.9c-0.5-3.8-1.3-7.5-2.3-11.2L126,283l-5.3-54.1l38-13.4l1.3,2.5l1.9,4.9
		c2.1,5.4,3.7,10.9,4.9,16.5L169,250l4,27l2,23l-0.5,30.4c-1,9.5,0.6,19.2,4.5,27.9l0.5,1.1c6.8,14.1,9.8,29.8,8.5,45.4L187,418v0
		c-4.6,13.9-6.8,28.5-6.3,43.1L181,472z"/>
	<path class="st2" d="M77,273l-1.6-2c-1.5-1.9-2.2-4.3-1.8-6.7L75,254l0,0c-3.2-8.9-2.2-18.7,2.7-26.7l3.8-5.2
		C87.8,213.4,91,210,96,192l-0.1-0.5c2.1-5.7,3.5-11.6,4.2-17.6l2.9-43c2-5,4.2-7.2,10-10v-9V94l-18.6,7C88,103.5,83.3,109.2,82,116
		l-1,11c-2,14.6-4.3,29.4-4.9,44.1v0c0,0.7-0.1,1.4-0.2,2.1c-1,6.8-3,9.8-3,9.8c-5.9,7.2-6.6,11.9-7.8,21.1L62.8,223
		c-0.5,4-1.3,8-2.4,11.9l-1.2,4.5c-0.8,2.4-1.3,4.9-1.6,7.4l-1.1,11.7c-0.3,3.7-0.3,7.3,0.2,11l0,0c0.2,1.7,0.8,3.2,1.8,4.6l0,0
		c3,3.9,6.7,7.3,10.9,9.8l0.1,0.1c0.8,0.6,2,0.4,2.5-0.4l0-1.4v-1h2v-1h1v-1h1v-2h1V273z"/>
	<path class="st2" d="M152,50v-7c0-9.9-9-18-20-18s-20,8.1-20,18c0,0.3,0,0.7,0.1,1l-0.1,0l-0.5,10.4c-0.4,8.3,0.9,16.1,4.5,23.6
		l3.7,6.6c0.8,1.5,2.4,2.4,4.1,2.4h1.7c2.3,0,4.5-0.7,6.3-2.1l1.4-1.1C139,79.3,143.7,73.6,147,67l0.2,0c6.8-2,6.9-9.8,7.2-11.4
		C154.8,53.4,153.8,51.2,152,50z"/>
</g>
<g id="Corps" class="st0">
	<path class="st2" d="M148,67v14.9c0,2.6,1.3,4.9,3.5,6.3l18.4,11.3c2.7,1.7,5.7,3,8.8,3.8l0.1,0c4,1.1,7.6,3.5,10.1,6.7
		c1.6,2.1,3.1,4,3.1,4l1.7,4.9c2.1,6,3,12.4,2.4,18.7l0,0c-0.1,1.6,0,3.1,0.3,4.7l1.4,4.1c2.7,7.7,4.1,15.8,4.1,23.9l0,0
		c3.8,8.6,5,18.1,3.6,27.3l-1.1,6.9c-0.4,2.3-0.9,4.6-1.6,6.9l-3.9,13.2c-2.7,8.9-4.4,18.1-5,27.4v0l1,16l-6,10l-5,5h-3h-1v1h-2v1
		h-1h-1h-1v1h-1v1l-0.4,0.4c-0.4,0.4-0.9,0.6-1.5,0.6l0,0c-0.7,0-1.4-0.3-1.9-0.8l-0.4-0.4c-1.8-1.8,4.8-7.3,5.2-7.8l0,0
		c1.9-4.5,2.4-9.6,1.2-14.4L175,260l-2-3l-1,4c-0.7,2.6-1.5,5.2-2.6,7.7l-0.8,1.8c-1.6,2.4-3.3,1.6-3.6,1.4
		c-1.2-0.6-1.4-1.9-0.9-3.1c1-2.6,3.9-4.9,3.9-11.9V254l8-7.4c2.4-2.2,4-4.6,4-8.6l-1.2-8.4c-1.8-12.3-1.7-24.9,0.3-37.2l1-5.8
		c0.5-3.1,0.1-8.1-1-11l-3-8.6l-4.6-14.8c-0.1-0.4-0.7-0.4-0.8,0L161,176v0c-3.9,7.2-6,15.3-6,23.5v3.3c0,4.7,1.4,9.3,4,13.2l0,0
		l-8,6l-4.5,1.9c-12.2,5.3-25.4,8.1-38.7,8.1l-17.1-1.6c-2-0.2-3.4-2-3.2-4L90,207l3-32v-20l-2.7-7.1c-1.5-3.9-2.1-8.1-1.9-12.3
		l0.3-4.2c0.2-3.6,1-7.1,2.4-10.5l2.8-7c0.8-1.9,1.8-3.7,3.1-5.4l2.5-4.4c2.9-5.1,7.9-8.8,13.7-9.9L115,93l3.6-3.6
		c0.9-0.9,1.2-2.2,0.9-3.4L119,72l27-5H148z"/>
	<path class="st2" d="M57,478l7.6-0.5c4.9-0.3,9.7-1.4,14.3-3.1h0c0.7-0.3,1.5-0.4,2.3-0.4h23.7c3.6,0,6.6-2.5,7.3-6l0,0
		c0.5-2.6,0.1-5.2-1.2-7.5l-0.7-1.2c-1.1-1.9-1.7-4.1-1.6-6.3l0,0c0.2-9.3,1-18.6,2.4-27.8l0.3-1.3c2.4-9.9,5.2-19.7,8.4-29.4l0,0
		c1.4-6.9,1.5-14,0.2-21l-1-5.5l-4.2-13.2c-1.8-5.7-1.9-11.8-0.2-17.6l5.3-18.4c0.7-2.5,1.3-5.1,1.7-7.7L126,283l-3-54l-35.6-1.4
		l0,0C84,239,82,249,81,262l-1,26l0.9,33.1c0.1,3.3,0.1,6.6-0.1,9.9l-1.4,11.4c-0.9,6.9,0.8,13.8,4.8,19.5l0.8,2.2
		c1.4,3.9,0.1,7.9,0.8,12.1l3.6,29.6c1.1,9.5,1.2,19.1,0.1,28.6l-0.9,8.2c-0.3,2.2-1.4,4.3-3.1,5.7L69,461c-1.2,1-2.4,3-4,3h-5v1h-2
		v1h-2v1h-2v1h-2v1l-1.8,0.7c-1.6,0.6-2.2,2.7-1.1,4.1L50,475l4,2L57,478z"/>
	<path class="st2" d="M181,472l2,8l-1,18l-5,3h-3h-6v1h-5h-6h-6l-1.6-1.1c-0.8-0.5-1-1.5-0.6-2.3l5.4-10.1c1.2-2.3,2.8-4.4,4.6-6.2
		l0.1-0.2c1.4-3.4,2.5-6.9,3.1-10.5l0.7-5.8c0.3-2.5,0.4-5.1,0.3-7.6l0-6.3c0.1-14.5-2.2-28.9-6.8-42.7l-1.1-5.9
		c-0.7-3.5-1.1-7.1-1.3-10.7l-0.5-9.7c-0.2-3.3-0.9-6.5-2-9.5l-5-12.7c-1.5-3.7-2-7.8-1.6-11.8l0.1-0.5c0.2-1.7-0.2-3.5-1.1-5h0
		c-5-8.2-8.3-17.3-9.5-26.9l-0.4-2.9c-0.5-3.8-1.3-7.5-2.3-11.2L126,283l-5.3-54.1l38-13.4l1.3,2.5l1.9,4.9
		c2.1,5.4,3.7,10.9,4.9,16.5L169,250l4,27l2,23l-0.5,30.4c-1,9.5,0.6,19.2,4.5,27.9l0.5,1.1c6.8,14.1,9.8,29.8,8.5,45.4L187,418v0
		c-4.6,13.9-6.8,28.5-6.3,43.1L181,472z"/>
	<path class="st2" d="M77,273l-1.6-2c-1.5-1.9-2.2-4.3-1.8-6.7L75,254l0,0c-3.2-8.9-2.2-18.7,2.7-26.7l3.8-5.2
		C87.8,213.4,91,210,96,192l-0.1-0.5c2.1-5.7,3.5-11.6,4.2-17.6l2.9-43c2-5,4.2-7.2,10-10v-9V94l-18.6,7C88,103.5,83.3,109.2,82,116
		l-1,11c-2,14.6-4.3,29.4-4.9,44.1v0c0,0.7-0.1,1.4-0.2,2.1c-1,6.8-3,9.8-3,9.8c-5.9,7.2-6.6,11.9-7.8,21.1L62.8,223
		c-0.5,4-1.3,8-2.4,11.9l-1.2,4.5c-0.8,2.4-1.3,4.9-1.6,7.4l-1.1,11.7c-0.3,3.7-0.3,7.3,0.2,11l0,0c0.2,1.7,0.8,3.2,1.8,4.6l0,0
		c3,3.9,6.7,7.3,10.9,9.8l0.1,0.1c0.8,0.6,2,0.4,2.5-0.4l0-1.4v-1h2v-1h1v-1h1v-2h1V273z"/>
	<path class="st2" d="M152,50v-7c0-9.9-9-18-20-18s-20,8.1-20,18c0,0.3,0,0.7,0.1,1l-0.1,0l-0.5,10.4c-0.4,8.3,0.9,16.1,4.5,23.6
		l3.7,6.6c0.8,1.5,2.4,2.4,4.1,2.4h1.7c2.3,0,4.5-0.7,6.3-2.1l1.4-1.1C139,79.3,143.7,73.6,147,67l0.2,0c6.8-2,6.9-9.8,7.2-11.4
		C154.8,53.4,153.8,51.2,152,50z"/>
	<path id="jambe_gauche" class="st3" d="M57,478l7.6-0.5c4.9-0.3,9.7-1.4,14.3-3.1h0c0.7-0.3,1.5-0.4,2.3-0.4h23.7
		c3.6,0,6.6-2.5,7.3-6l0,0c0.5-2.6,0.1-5.2-1.2-7.5l-0.7-1.2c-1.1-1.9-1.7-4.1-1.6-6.3l0,0c0.2-9.3,1-18.6,2.4-27.8l0.3-1.3
		c2.4-9.9,5.2-19.7,8.4-29.4l0,0c1.4-6.9,1.5-14,0.2-21l-1-5.5l-4.2-13.2c-1.8-5.7-1.9-11.8-0.2-17.6l5.3-18.4
		c0.7-2.5,1.3-5.1,1.7-7.7L126,283l-3-54l-35.6-1.4l0,0C84,239,82,249,81,262l-1,26l0.9,33.1c0.1,3.3,0.1,6.6-0.1,9.9l-1.4,11.4
		c-0.9,6.9,0.8,13.8,4.8,19.5l0.8,2.2c1.4,3.9,0.1,7.9,0.8,12.1l3.6,29.6c1.1,9.5,1.2,19.1,0.1,28.6l-0.9,8.2
		c-0.3,2.2-1.4,4.3-3.1,5.7L69,461c-1.2,1-2.4,3-4,3h-5v1h-2v1h-2v1h-2v1h-2v1l-1.8,0.7c-1.6,0.6-2.2,2.7-1.1,4.1L50,475l4,2L57,478
		z"/>
	<path id="jambe_droite" class="st3" d="M181,472l2,8l-0.8,15.2c-0.1,1.8-1.1,3.4-2.6,4.3l0,0c-10.6,3.6-22.1,2.8-26.6,2.6
		c-1.3-0.1-2.5-0.5-3.6-1.2l0,0c-0.8-0.5-1-1.5-0.6-2.3l5.4-10.1c1.2-2.3,2.8-4.4,4.6-6.2l0.1-0.2c1.4-3.4,2.5-6.9,3.1-10.5l0.7-5.8
		c0.3-2.5,0.4-5.1,0.3-7.6l0-6.3c0.1-14.5-2.2-28.9-6.8-42.7l-1.1-5.9c-0.7-3.5-1.1-7.1-1.3-10.7l-0.5-9.7c-0.2-3.3-0.9-6.5-2-9.5
		l-5-12.7c-1.5-3.7-2-7.8-1.6-11.8l0.1-0.5c0.2-1.7-0.2-3.5-1.1-5h0c-5-8.2-8.3-17.3-9.5-26.9l-0.4-2.9c-0.5-3.8-1.3-7.5-2.3-11.2
		L126,283l-5.3-54.1l38-13.4l1.3,2.5l1.9,4.9c2.1,5.4,3.7,10.9,4.9,16.5L169,250l4,27l2,23l-0.5,30.4c-1,9.5,0.6,19.2,4.5,27.9
		l0.5,1.1c6.8,14.1,9.8,29.8,8.5,45.4L187,418v0c-4.6,13.9-6.8,28.5-6.3,43.1L181,472z"/>
	<path id="Boxer" class="st4" d="M173,277l-4-27l-2.2-10.6c-0.7-3.2-1.5-6.3-2.5-9.4l-9.6,2.6c-20.1,5.5-41.3,5.3-61.3-0.6l-6.7-2
		c-3,10.4-4.8,19.9-5.7,32l-1,26l9.6,2.3c7.5,1.8,15.4,1.9,23,0.3l12.7-2.6l0.8-5l1.4,5l9,1.5c10.3,1.7,20.8,1.6,31.1-0.3l6.4-1.2
		L173,277z"/>
	<path id="bras_droit__x2B__ventre" class="st3" d="M148,67v14.9c0,2.6,1.3,4.9,3.5,6.3l18.4,11.3c2.7,1.7,5.7,3,8.8,3.8l0.1,0
		c4,1.1,7.6,3.5,10.1,6.7c1.6,2.1,3.1,4,3.1,4l1.7,4.9c2.1,6,3,12.4,2.4,18.7l0,0c-0.1,1.6,0,3.1,0.3,4.7l1.4,4.1
		c2.7,7.7,4.1,15.8,4.1,23.9l0,0c3.8,8.6,5,18.1,3.6,27.3l-1.1,6.9c-0.4,2.3-0.9,4.6-1.6,6.9l-3.9,13.2c-2.7,8.9-4.4,18.1-5,27.4v0
		l0.9,13.7c0.1,1.5-0.3,3-1.1,4.4l-4.8,8l-5,5h-3h-1v1h-2v1h-1h-1h-1v1h-1v1l-0.4,0.4c-0.4,0.4-0.9,0.6-1.5,0.6l0,0
		c-0.7,0-1.4-0.3-1.9-0.8l-0.4-0.4c-1.8-1.8,4.8-7.3,5.2-7.8l0,0c1.9-4.5,2.4-9.6,1.2-14.4L175,260l-2-3l-1,4
		c-0.7,2.6-1.5,5.2-2.6,7.7l-0.8,1.8c-1.6,2.4-3.3,1.6-3.6,1.4c-1.2-0.6-1.4-1.9-0.9-3.1c1-2.6,3.9-4.9,3.9-11.9V254l8-7.4
		c2.4-2.2,4-4.6,4-8.6l-1.2-8.4c-1.8-12.3-1.7-24.9,0.3-37.2l1-5.8c0.5-3.1,0.1-8.1-1-11l-3-8.6l-4.6-14.8c-0.1-0.4-0.7-0.4-0.8,0
		L161,176v0c-3.9,7.2-6,15.3-6,23.5v3.3c0,4.7,1.4,9.3,4,13.2l0,0l-8,6l-4.5,1.9c-12.2,5.3-25.4,8.1-38.7,8.1l-17.1-1.6
		c-2-0.2-3.4-2-3.2-4L90,207l3-32v-20l-2.7-7.1c-1.5-3.9-2.1-8.1-1.9-12.3l0.3-4.2c0.2-3.6,1-7.1,2.4-10.5l2.8-7
		c0.8-1.9,1.8-3.7,3.1-5.4l2.5-4.4c2.9-5.1,7.9-8.8,13.7-9.9L115,93l3.6-3.6c0.9-0.9,1.2-2.2,0.9-3.4L119,72l27-5H148z"/>
	<path id="bras_gauche" class="st5" d="M77,273l-1.6-2c-1.5-1.9-2.2-4.3-1.8-6.7L75,254l0,0c-3.2-8.9-2.2-18.7,2.7-26.7l3.8-5.2
		C87.8,213.4,91,210,96,192l-0.1-0.5c2.1-5.7,3.5-11.6,4.2-17.6l2.9-43c2-5,4.2-7.2,10-10v-9V94l-18.6,7C88,103.5,83.3,109.2,82,116
		l-1,11c-2,14.6-4.3,29.4-4.9,44.1v0c0,0.7-0.1,1.4-0.2,2.1c-1,6.8-3,9.8-3,9.8c-5.9,7.2-6.6,11.9-7.8,21.1L62.8,223
		c-0.5,4-1.3,8-2.4,11.9l-1.2,4.5c-0.8,2.4-1.3,4.9-1.6,7.4l-1.1,11.7c-0.3,3.7-0.3,7.3,0.2,11l0,0c0.2,1.7,0.8,3.2,1.8,4.6l0,0
		c3,3.9,6.7,7.3,10.9,9.8l0.1,0.1c0.8,0.6,2,0.4,2.5-0.4l0-1.4v-1h2v-1h1v-1h1v-2h1V273z"/>
	<path class="st6" d="M90,211.5v-21l6-82L112,95l4-2l1.7,18.4c1.5,16.5-0.9,33.1-7,48.5L90,211.5z"/>
	<radialGradient id="pec_gauche_1_" cx="109.6701" cy="117.4204" r="28.0347" gradientUnits="userSpaceOnUse">
		<stop  offset="0" style="stop-color:#E2C8B4;stop-opacity:0"/>
		<stop  offset="0.2062" style="stop-color:#D9C0AD;stop-opacity:4.236354e-02"/>
		<stop  offset="0.5395" style="stop-color:#C1AB9A;stop-opacity:0.1108"/>
		<stop  offset="0.9562" style="stop-color:#9B897B;stop-opacity:0.1964"/>
		<stop  offset="0.9737" style="stop-color:#99877A;stop-opacity:0.2"/>
	</radialGradient>
	<path id="pec_gauche" class="st7" d="M131,84h-11.6l0.1,2.1c0.3,1.2-0.1,2.5-0.9,3.4L115,93l-1.9,1.2c-5.8,1.2-10.8,4.8-13.7,9.9
		l-2.5,4.4c-1.3,1.6-2.3,3.5-3.1,5.4l-2.8,7c-1.3,3.3-2.1,6.9-2.4,10.5l-0.3,4.2c-0.3,4.2,0.4,8.4,1.9,12.3l0,0.1l2.4,0.6
		c11.4,2.9,23.2,3,34.6,0.3l3.7-0.9V84z"/>
	<linearGradient id="ombre_pied_gauche_1_" gradientUnits="userSpaceOnUse" x1="53.5127" y1="464.591" x2="61.085" y2="469.5085">
		<stop  offset="0" style="stop-color:#E2C8B4;stop-opacity:0"/>
		<stop  offset="0.1509" style="stop-color:#D9C0AD;stop-opacity:4.236354e-02"/>
		<stop  offset="0.3948" style="stop-color:#C1AB9A;stop-opacity:0.1108"/>
		<stop  offset="0.6998" style="stop-color:#9B897B;stop-opacity:0.1964"/>
		<stop  offset="0.7126" style="stop-color:#99877A;stop-opacity:0.2"/>
	</linearGradient>
	<path id="ombre_pied_gauche" class="st8" d="M64.4,464H60v1h-2v1h-2v1h-2v1h-2l-2,2l7.3,0.8c1,0.1,2.1-0.2,2.8-1l0.7-0.7
		c1.4-1.4,2.6-3.1,3.4-4.9L64.4,464z"/>
	<radialGradient id="pec_droit_1_" cx="151" cy="110" r="33.5336" gradientUnits="userSpaceOnUse">
		<stop  offset="0" style="stop-color:#E2C8B4;stop-opacity:0"/>
		<stop  offset="0.2003" style="stop-color:#DBC1AE;stop-opacity:4.114795e-02"/>
		<stop  offset="0.5006" style="stop-color:#C6AF9E;stop-opacity:0.1028"/>
		<stop  offset="0.862" style="stop-color:#A59283;stop-opacity:0.1771"/>
		<stop  offset="0.9737" style="stop-color:#99877A;stop-opacity:0.2"/>
	</radialGradient>
	<path id="pec_droit" class="st9" d="M171,100.1c-0.4-0.2-0.8-0.4-1.1-0.6l-18.4-11.3c-2.2-1.3-3.5-3.7-3.5-6.3V67h-2l-3.9,0.7
		L131,84v64l6.7,1.3c9.4,1.8,18.3,3.7,27.3,3.7l5.7-1c0.1-0.1,0.2-0.1,0.3-0.1l-1.8-5.3C163.9,131.4,164.6,114.8,171,100.1
		L171,100.1z"/>
	<linearGradient id="ombre_cou_1_" gradientUnits="userSpaceOnUse" x1="135.687" y1="91.7454" x2="131.928" y2="70.4273">
		<stop  offset="0" style="stop-color:#E2C8B4;stop-opacity:0"/>
		<stop  offset="0.4313" style="stop-color:#C5AE9D;stop-opacity:0.4313"/>
		<stop  offset="1" style="stop-color:#99877A"/>
	</linearGradient>
	<path id="ombre_cou" class="st10" d="M148,81.9V67h-2l-27,5l0.5,14.1c0.3,1.2,0,2.5-0.9,3.3c3.6,1,7.6,1.6,11.9,1.6
		c7.5,0,14.2-1.8,19.1-4.6C148.6,85.1,148,83.6,148,81.9z"/>
	<linearGradient id="Ombre_ventre_1_" gradientUnits="userSpaceOnUse" x1="128.9878" y1="232" x2="128.9878" y2="148">
		<stop  offset="0.5276" style="stop-color:#E2C8B4;stop-opacity:0"/>
		<stop  offset="0.6221" style="stop-color:#D9C0AD;stop-opacity:4.236354e-02"/>
		<stop  offset="0.7748" style="stop-color:#C1AB9A;stop-opacity:0.1108"/>
		<stop  offset="0.9657" style="stop-color:#9B897B;stop-opacity:0.1964"/>
		<stop  offset="0.9737" style="stop-color:#99877A;stop-opacity:0.2"/>
	</linearGradient>
	<path id="Ombre_ventre" class="st11" d="M161,176l9.5-23.8c-10.8,1.4-21.5-0.2-39.5-4.2l0,0l-3.8,0.9c-11.8,2.7-24,2.6-35.7-0.3
		l-1.1-0.3L93,155v20l-3,32l-2.5,19.4c-0.3,2,1.2,3.8,3.2,4l17.1,1.6c13.3,0,26.5-2.7,38.7-8.1l4.5-1.9l8-6c-2.6-3.9-4-8.5-4-13.2
		v-3.3C155,191.3,157.1,183.2,161,176z"/>
	<polygon class="st12" points="88,227 87,231 94,235 118,238 125,283 127,283 127,236 157,221 159,217 158,215 146,219 128,228 
		101.5,228.9 	"/>
	<ellipse id="nombril" class="st13" cx="120.4" cy="222.5" rx="1.4" ry="3.5"/>
	<linearGradient id="ombre_bras_gauche_1_" gradientUnits="userSpaceOnUse" x1="63.8006" y1="179.4399" x2="84.6648" y2="158.5757">
		<stop  offset="0" style="stop-color:#E2C8B4;stop-opacity:0"/>
		<stop  offset="0.2062" style="stop-color:#D9C0AD;stop-opacity:4.236354e-02"/>
		<stop  offset="0.5395" style="stop-color:#C1AB9A;stop-opacity:0.1108"/>
		<stop  offset="0.9562" style="stop-color:#9B897B;stop-opacity:0.1964"/>
		<stop  offset="0.9737" style="stop-color:#99877A;stop-opacity:0.2"/>
	</linearGradient>
	<path id="ombre_bras_gauche" class="st14" d="M69.5,189.5c7.8,0,15,5.1,20.9,13.6L93,175v-20l-2.7-7.1c-1.5-3.9-2.1-8.1-1.9-12.3
		l0.3-4.2c0.2-3.6,1-7.1,2.4-10.5l2.8-7c0.8-1.9,1.8-3.7,3.1-5.4l2.5-4.4c2.1-3.7,5.3-6.6,9-8.4l-14,5.3C88,103.5,83.3,109.2,82,116
		l-1,11c-2,14.6-4.3,29.4-4.9,44.1c0,0.7-0.1,1.4-0.2,2.1c-1,6.8-3,9.8-3,9.8c-1.9,2.4-3.3,4.5-4.3,6.5
		C68.9,189.5,69.2,189.5,69.5,189.5z"/>
	<ellipse id="téton_gauche" class="st13" cx="105.9" cy="136.9" rx="1.1" ry="1.9"/>
	<ellipse id="téton_droit" class="st13" cx="149" cy="138.2" rx="1.2" ry="2.2"/>
	<path id="tête" class="st3" d="M152,50v-7c0-9.9-9-18-20-18s-20,8.1-20,18c0,0.3,0,0.7,0.1,1l-0.1,0l-0.5,10.4
		c-0.4,8.3,0.9,16.1,4.5,23.6l3.7,6.6c0.8,1.5,2.4,2.4,4.1,2.4h1.7c2.3,0,4.5-0.7,6.3-2.1l1.4-1.1C139,79.3,143.7,73.6,147,67l0.2,0
		c6.8-2,6.9-9.8,7.2-11.4C154.8,53.4,153.8,51.2,152,50z"/>
	<path class="st6" d="M88,226l-1,4l7,2l14.1,3.3c7.8,1.8,15.9,2.1,23.9,0.7h0l25-16l2-3l-2-3l-11,4l-18,11l-26.5-1.1L88,226z"/>
	<linearGradient id="SVGID_1_" gradientUnits="userSpaceOnUse" x1="65.2224" y1="255.8035" x2="78.3272" y2="278.5017">
		<stop  offset="0" style="stop-color:#E2C8B4;stop-opacity:0"/>
		<stop  offset="2.381813e-02" style="stop-color:#DCC3AF;stop-opacity:8.327687e-03"/>
		<stop  offset="0.1653" style="stop-color:#BFA998;stop-opacity:5.780747e-02"/>
		<stop  offset="0.3054" style="stop-color:#AA9687;stop-opacity:0.1068"/>
		<stop  offset="0.4423" style="stop-color:#9D8B7D;stop-opacity:0.1546"/>
		<stop  offset="0.572" style="stop-color:#99877A;stop-opacity:0.2"/>
	</linearGradient>
	<path class="st15" d="M74,280h1v-1h1v-2h1v-4l-1.6-2c-1.5-1.9-2.2-4.3-1.8-6.7l1.5-10.2l-6.5,0.5c-3.1,0.2-5.4,2.9-5.4,6l0.2,7.8
		c0.1,3.3,1.5,6.4,4,8.6l4.7,4.2V281h2V280z"/>
</g>
<g id="Tête">
	<path class="st16" d="M113.2,57.2c0.6,0.6,1.2,0.9,2,1.1l0.7,0.2c1.4,0.3,2.8,0,3.9-0.8l0.4-0.3c0.6-0.4,0.9-1.1,1-1.7
		c0-0.2-0.1-0.4-0.2-0.7l-0.3-0.5c-0.4-0.8-1.3-1.3-2.3-1.5l-0.8-0.1c-1.1-0.2-3.9-0.1-5.2,0.2c-0.3,0.1-0.5,0.3-0.5,0.6v0.2v1
		c0,0.7,0.3,1.4,0.8,1.9L113.2,57.2z"/>
	<path class="st16" d="M141.6,52.9c-0.6-0.5-1.4-0.9-2.2-0.9h-5.3c-1.5,0-2.3,0-3.8,0.8l-0.7,0.8c-0.7,0.9-0.8,2-0.4,3
		c0.1,0.1,0.1,0.1,0.2,0.2l0.4,0.3c0.8,0.6,1.7,1,2.6,1.2c2.3,0.5,4.7,0.2,6.9-0.6L141,57l0.4-0.5C142.3,55.1,142.3,54.2,141.6,52.9
		z"/>
	<circle class="st17" cx="117.5" cy="55.5" r="2.5"/>
	<path class="st18" d="M129.6,53.7l0.7-0.8c1.5-0.8,2.3-0.8,3.8-0.8h5.3c0.8,0,1.6,0.3,2.2,0.9c-0.1-0.1-0.1-0.2-0.2-0.3L141,52
		c-0.6-0.6-1.5-1-2.4-1h-5.3c-1.5,0-2.3,0-3.8,0.8l-0.7,0.8c-1,1.2-0.8,3,0.3,4C128.8,55.7,128.9,54.5,129.6,53.7z"/>
	<path class="st18" d="M112.5,53.1c1.2-0.3,4-0.4,5.2-0.2l0.8,0.1c1,0.2,1.8,0.7,2.3,1.5L121,55c0.1,0.2,0.2,0.4,0.2,0.7
		c0.1-0.6,0-1.1-0.2-1.6l-0.3-0.6c-0.4-0.9-1.3-1.5-2.3-1.7l-0.8-0.2c-1.1-0.2-3.9-0.1-5.2,0.2c-0.3,0.1-0.5,0.4-0.5,0.7v1.2
		C112,53.4,112.2,53.2,112.5,53.1z"/>
	<linearGradient id="SVGID_2_" gradientUnits="userSpaceOnUse" x1="119.9836" y1="62.2124" x2="128.0752" y2="62.2124">
		<stop  offset="0" style="stop-color:#948478;stop-opacity:0.4"/>
		<stop  offset="0.1558" style="stop-color:#A09287;stop-opacity:0.336"/>
		<stop  offset="0.4556" style="stop-color:#BFB5AE;stop-opacity:0.2128"/>
		<stop  offset="0.8654" style="stop-color:#F1EFED;stop-opacity:4.446727e-02"/>
		<stop  offset="0.9737" style="stop-color:#FFFFFF;stop-opacity:0"/>
	</linearGradient>
	<path class="st19" d="M121,55c0,0,1,3,1,6c0,3-1.5,3.1-2,6c-0.1,0.3,0,3,1,3c0,0,5.6,1.4,7-1c0.2-0.3,0-0.9,0-1l-1.1-2.2
		c-0.6-1.2-0.9-2.5-0.9-3.8v0v-3v-0.8c0,0,0,0,0,0c-1-2.2-2-4.2-5-4.2l0,0V55z"/>
	<path class="st20" d="M122.1,69.6c-1.1,0-1.1-2.8-1.1-3.1c0.6-3,2.1-3.2,2.1-6.2c0-3.1-2.1-6.2-2.1-6.2l0,0l0,0v1c0,0,1,3,1,6
		c0,3-1.5,3.1-2,6c-0.1,0.3,0,3,1,3c0,0,3.9,1,6-0.1C124.8,70.2,122.1,69.6,122.1,69.6z"/>
	<path class="st20" d="M118.5,76.1c-0.2-0.2-0.1-0.6,0.2-0.6c1.3-0.2,3-1.1,5.4,0.1l0,0l0,0c1.1,0,1.4-1.2,6.7-0.2
		c0.2,0,0.3,0.3,0.1,0.5l-2,1.6c-1.3,0.4-2.8,0.4-3.7,0.4H124h-1.2c0,0,0,0,0,0c-1.5,0.1-3-0.3-4-1.4L118.5,76.1z"/>
	<path class="st16" d="M121.1,76.4c-0.1-0.1-0.1-0.2,0.1-0.2c0.7-0.1,2.8-0.2,6.7,0c0.1,0,0.2,0.1,0.1,0.2l-1.1,0.5
		c-0.7,0.1-1.5,0.1-2,0.1h-0.7h-0.7c0,0,0,0,0,0c-0.8,0-1.7-0.1-2.2-0.5L121.1,76.4z"/>
	<circle class="st17" cx="135" cy="55" r="3"/>
	<circle class="st21" cx="117.5" cy="55.5" r="1.5"/>
	<circle class="st21" cx="135" cy="55" r="1.8"/>
	<path class="st22" d="M112,42l7-1h0c4,0.7,8,0.5,11.9-0.5L133,40l6.8,0.8c1.5,0.2,2.9,0.4,4.4,0.7L152,43l0.4-0.3
		c2.1-1.6,2.7-4.4,1.6-6.7v0v0c-0.6-3.8-2.8-7.3-5.9-9.6L142,22v0c-4.6-1.3-9.5-2-14.3-2h-1.3c-3.5,0-6.9,1.1-9.7,3.2l0,0
		c-2.4,1.8-4.6,4-6.3,6.5l-0.5,0.8C108.1,34.4,109,39,112,42L112,42z"/>
</g>
</svg>
